<?xml version="1.0" encoding="UTF-8" standalone="no"?>
<!-- Created with Inkscape (http://www.inkscape.org/) -->

<svg
   xmlns:dc="http://purl.org/dc/elements/1.1/"
   xmlns:cc="http://creativecommons.org/ns#"
   xmlns:rdf="http://www.w3.org/1999/02/22-rdf-syntax-ns#"
   xmlns:svg="http://www.w3.org/2000/svg"
   xmlns="http://www.w3.org/2000/svg"
   xmlns:xlink="http://www.w3.org/1999/xlink"
   xmlns:sodipodi="http://sodipodi.sourceforge.net/DTD/sodipodi-0.dtd"
   xmlns:inkscape="http://www.inkscape.org/namespaces/inkscape"
   inkscape:version="0.91 r13725"
   version="1.1"
   id="svg2"
   viewBox="0 0 99.999997 99.999997"
   height="100"
   width="100"
   sodipodi:docname="hero-ada-lovelace.svg">
  <sodipodi:namedview
     inkscape:window-maximized="0"
     inkscape:window-y="523"
     inkscape:window-x="833"
     inkscape:window-height="985"
     inkscape:window-width="1381"
     inkscape:bbox-nodes="true"
     inkscape:snap-bbox="true"
     units="px"
     showgrid="false"
     inkscape:current-layer="layer1"
     inkscape:document-units="px"
     inkscape:cy="46.953401"
     inkscape:cx="57.80813"
     inkscape:zoom="1"
     inkscape:pageshadow="2"
     inkscape:pageopacity="0.0"
     borderopacity="1.0"
     bordercolor="#666666"
     pagecolor="#ffffff"
     id="base"
     inkscape:object-nodes="true"
     inkscape:snap-smooth-nodes="true"
     inkscape:object-paths="true"
     inkscape:snap-nodes="true">
    <inkscape:grid
       id="grid4147"
       type="xygrid" />
  </sodipodi:namedview>
  <defs
     id="defs4">
    <linearGradient
       inkscape:collect="always"
       id="linearGradient4459">
      <stop
         style="stop-color:#000000;stop-opacity:1;"
         offset="0"
         id="stop4461" />
      <stop
         style="stop-color:#000000;stop-opacity:0;"
         offset="1"
         id="stop4463" />
    </linearGradient>
    <linearGradient
       inkscape:collect="always"
       xlink:href="#linearGradient4459"
       id="linearGradient4465"
       x1="46"
       y1="63"
       x2="60.125"
       y2="77.125"
       gradientUnits="userSpaceOnUse"
       gradientTransform="translate(-1,949.36223)" />
    <linearGradient
       inkscape:collect="always"
       xlink:href="#linearGradient4459"
       id="linearGradient4475"
       x1="60.000046"
       y1="982.36224"
       x2="115"
       y2="1037.3622"
       gradientUnits="userSpaceOnUse" />
  </defs>
  <metadata
     id="metadata7">
    <rdf:RDF>
      <cc:Work
         rdf:about="">
        <dc:format>image/svg+xml</dc:format>
        <dc:type
           rdf:resource="http://purl.org/dc/dcmitype/StillImage" />
        <dc:title />
      </cc:Work>
    </rdf:RDF>
  </metadata>
  <g
     transform="translate(0,-952.36223)"
     id="layer1"
     inkscape:groupmode="layer"
     inkscape:label="Layer 1">
    <rect
       y="952.36224"
       x="-100"
       height="100"
       width="100"
       id="rect4151"
       style="opacity:1;fill:#1d99f3;fill-opacity:1;stroke:none;stroke-width:0.5;stroke-linecap:butt;stroke-linejoin:round;stroke-miterlimit:4;stroke-dasharray:none;stroke-opacity:1"
       transform="scale(-1,1)" />
    <path
       style="opacity:0.2;fill:url(#linearGradient4475);fill-opacity:1;fill-rule:evenodd;stroke:none;stroke-width:1px;stroke-linecap:butt;stroke-linejoin:miter;stroke-opacity:1"
       d="m 70,965.36225 30,29.99996 0,56.99999 -40,0 z"
       id="path4467"
       inkscape:connector-curvature="0"
       sodipodi:nodetypes="ccccc" />
    <path
       style="fill:#eff0f1;fill-opacity:1;fill-rule:evenodd;stroke:none;stroke-width:1px;stroke-linecap:butt;stroke-linejoin:miter;stroke-opacity:1"
       d="m 70,1052.3622 c -5,-10 -3,-24 -3,-24 l -34,0 c 0,0 2,14 -3,24 z"
       id="path4596"
       inkscape:connector-curvature="0"
       sodipodi:nodetypes="ccccc" />
    <path
       sodipodi:nodetypes="ccscsssc"
       inkscape:connector-curvature="0"
       id="path4245"
       d="m 79.691366,986.36311 c -0.527773,-0.008 -1.096537,0.0405 -1.691366,0.12465 0.835425,3.16322 1.398726,6.64344 1.624179,10.49444 0.154052,2.6313 0.145048,5.0821 0.0029,7.38 2.17596,-0.5526 2.372921,-2 2.804335,-3.9017 0.414542,-1.8274 1.991293,-3.0392 1.523904,-8.80074 -0.292118,-3.60101 -1.192166,-5.24781 -4.263973,-5.29665 z"
       style="fill:#eff0f1;fill-opacity:1;fill-rule:evenodd;stroke:none;stroke-width:1px;stroke-linecap:butt;stroke-linejoin:miter;stroke-opacity:1" />
    <path
       sodipodi:nodetypes="ccscsssc"
       inkscape:connector-curvature="0"
       id="path4245-7"
       d="m 19.308634,987.36314 c 0.527773,-0.008 1.096537,0.0405 1.691366,0.12465 -0.835425,3.16322 -1.398726,6.64341 -1.624179,10.49441 -0.154052,2.6313 -0.145048,5.0821 -0.0029,7.38 -2.17596,-0.5526 -2.372921,-2 -2.804335,-3.9017 -0.414542,-1.8274 -1.991293,-3.0392 -1.523904,-8.80071 0.292118,-3.60101 1.192166,-5.24781 4.263973,-5.29665 z"
       style="fill:#eff0f1;fill-opacity:1;fill-rule:evenodd;stroke:none;stroke-width:1px;stroke-linecap:butt;stroke-linejoin:miter;stroke-opacity:1" />
    <path
       sodipodi:nodetypes="sszzzss"
       inkscape:connector-curvature="0"
       id="path4164"
       d="m 50,962.36223 c 12,0 30,5.31256 30,37.1875 0,17.81247 -10,29.81247 -17,34.81247 -7,5 -8.666667,6.625 -13,6.625 -4.333333,0 -6,-1.625 -13,-6.625 -7,-5 -17,-17 -17,-34.81247 0,-31.87494 18,-37.1875 30,-37.1875 z"
       style="fill:#eff0f1;fill-rule:evenodd;stroke:none;stroke-width:1px;stroke-linecap:butt;stroke-linejoin:miter;stroke-opacity:1" />
    <path
       style="opacity:0.1;fill:url(#linearGradient4465);fill-opacity:1;fill-rule:evenodd;stroke:none;stroke-width:1px;stroke-linecap:butt;stroke-linejoin:miter;stroke-opacity:1"
       d="m 50,996.36223 -4.19375,16.99997 18.1875,18.1875 10.197656,-10.9941 z"
       id="path4407"
       inkscape:connector-curvature="0"
       sodipodi:nodetypes="ccccc" />
    <path
       style="fill:#1d99f3;fill-opacity:1;fill-rule:evenodd;stroke:none;stroke-width:1px;stroke-linecap:butt;stroke-linejoin:miter;stroke-opacity:1"
       d="m 48,962.36223 c 3,12 23,40.85637 31,27 8,-13.85641 -17.5625,-31 -17.5625,-31 z"
       id="path4613"
       inkscape:connector-curvature="0"
       sodipodi:nodetypes="czcc" />
    <path
       style="fill:#1d99f3;fill-opacity:1;fill-rule:evenodd;stroke:none;stroke-width:1px;stroke-linecap:butt;stroke-linejoin:miter;stroke-opacity:1"
       d="m 46,962.36223 c 2,9 -18,11 -21,15 -3,4 -1,15 -1,15 l -3,-1 -8,-20 23,-11 z"
       id="path4615"
       inkscape:connector-curvature="0"
       sodipodi:nodetypes="csccccc" />
    <g
       id="g4859"
       transform="matrix(-1,0,0,1,100,0)">
      <g
         transform="translate(-3.5,-2.0000137)"
         id="g4833">
        <ellipse
           style="opacity:1;fill:#2ecc71;fill-opacity:1;stroke:none;stroke-width:3;stroke-linecap:butt;stroke-linejoin:round;stroke-miterlimit:4;stroke-dasharray:none;stroke-opacity:1"
           id="path4751"
           cx="22.5"
           cy="974.36224"
           rx="2.5"
           ry="3" />
        <ellipse
           style="opacity:1;fill:#2ecc71;fill-opacity:1;stroke:none;stroke-width:3;stroke-linecap:butt;stroke-linejoin:round;stroke-miterlimit:4;stroke-dasharray:none;stroke-opacity:1"
           id="path4751-1"
           cx="27.5"
           cy="979.36224"
           rx="2.5"
           ry="3" />
        <ellipse
           style="opacity:1;fill:#2ecc71;fill-opacity:1;stroke:none;stroke-width:3;stroke-linecap:butt;stroke-linejoin:round;stroke-miterlimit:4;stroke-dasharray:none;stroke-opacity:1"
           id="path4751-1-7"
           cx="22"
           cy="981.36224"
           rx="2.5"
           ry="3" />
      </g>
      <path
         inkscape:connector-curvature="0"
         id="path4838"
         d="M 53.066406,961.36523 C 37.545439,960.3305 25.324219,971.625 25.324219,971.625 a 1.0001493,1.0001493 0 1 0 1.351562,1.47461 c 0,0 11.77878,-10.7055 26.257813,-9.74023 14.629142,0.97527 23.359375,9.71093 23.359375,9.71093 a 1.0005818,1.0005818 0 1 0 1.414062,-1.41601 c 0,0 -9.269767,-9.26434 -24.640625,-10.28907 z"
         style="color:#000000;font-style:normal;font-variant:normal;font-weight:normal;font-stretch:normal;font-size:medium;line-height:normal;font-family:sans-serif;text-indent:0;text-align:start;text-decoration:none;text-decoration-line:none;text-decoration-style:solid;text-decoration-color:#000000;letter-spacing:normal;word-spacing:normal;text-transform:none;direction:ltr;block-progression:tb;writing-mode:lr-tb;baseline-shift:baseline;text-anchor:start;white-space:normal;clip-rule:nonzero;display:inline;overflow:visible;visibility:visible;opacity:1;isolation:auto;mix-blend-mode:normal;color-interpolation:sRGB;color-interpolation-filters:linearRGB;solid-color:#000000;solid-opacity:1;fill:#2ecc71;fill-opacity:1;fill-rule:evenodd;stroke:none;stroke-width:2;stroke-linecap:round;stroke-linejoin:miter;stroke-miterlimit:4;stroke-dasharray:none;stroke-dashoffset:0;stroke-opacity:1;color-rendering:auto;image-rendering:auto;shape-rendering:auto;text-rendering:auto;enable-background:accumulate" />
      <path
         inkscape:connector-curvature="0"
         id="path4838-9"
         d="m 54.033203,964.86328 c -15.282559,-1.01884 -27.386719,11.14453 -27.386719,11.14453 a 0.50005,0.50005 0 1 0 0.707032,0.70703 c 0,0 11.89584,-11.83467 26.613281,-10.85351 14.813099,0.98754 22.660156,9.83398 22.660156,9.83398 a 0.50005639,0.50005639 0 1 0 0.746094,-0.66601 c 0,0 -8.152943,-9.15356 -23.339844,-10.16602 z"
         style="color:#000000;font-style:normal;font-variant:normal;font-weight:normal;font-stretch:normal;font-size:medium;line-height:normal;font-family:sans-serif;text-indent:0;text-align:start;text-decoration:none;text-decoration-line:none;text-decoration-style:solid;text-decoration-color:#000000;letter-spacing:normal;word-spacing:normal;text-transform:none;direction:ltr;block-progression:tb;writing-mode:lr-tb;baseline-shift:baseline;text-anchor:start;white-space:normal;clip-rule:nonzero;display:inline;overflow:visible;visibility:visible;opacity:1;isolation:auto;mix-blend-mode:normal;color-interpolation:sRGB;color-interpolation-filters:linearRGB;solid-color:#000000;solid-opacity:1;fill:#2ecc71;fill-opacity:1;fill-rule:evenodd;stroke:none;stroke-width:1px;stroke-linecap:round;stroke-linejoin:miter;stroke-miterlimit:4;stroke-dasharray:none;stroke-dashoffset:0;stroke-opacity:1;color-rendering:auto;image-rendering:auto;shape-rendering:auto;text-rendering:auto;enable-background:accumulate" />
    </g>
    <path
       sodipodi:nodetypes="sszss"
       inkscape:connector-curvature="0"
       id="path4188"
       d="m 50,996.3622 c 1.5,0 1.143047,6.3576 3,11 2,5 3,7 -3,7 -6,0 -5,-2 -3,-7 1.856953,-4.6424 1.5,-11 3,-11 z"
       style="fill:#2ecc71;fill-rule:evenodd;stroke:none;stroke-width:1px;stroke-linecap:butt;stroke-linejoin:miter;stroke-opacity:1" />
    <path
       style="fill:#1d99f3;fill-opacity:1;fill-rule:evenodd;stroke:none;stroke-width:1px;stroke-linecap:butt;stroke-linejoin:miter;stroke-opacity:1"
       d="m 17.567314,989.38765 c -8.185693,1.02152 -8.888281,8.86119 -7.751603,9.79988 -0.851265,1.21077 1.866645,6.31317 3.003316,7.25187 -0.844938,1.2092 2.857446,6.178 3.994116,7.1167 -0.844939,1.2092 2.856818,6.1731 3.993479,7.1118 0.145447,1.0741 2.30449,3.1166 7.388801,2.5711 3.115529,-0.3335 1.598856,-3.3508 0.462159,-4.2895 0.844955,-1.2093 0.191101,-5.943 -0.945509,-6.8816 0.844952,-1.2094 0.261486,-5.5053 -0.875175,-6.4438 0.844932,-1.2093 -1.021099,-7.51789 -2.15773,-8.45658 0.844942,-1.20915 1.073988,-8.80091 -7.111784,-7.77988 z"
       id="path4617-3-4"
       inkscape:connector-curvature="0"
       sodipodi:nodetypes="zccccsccccz" />
    <path
       style="fill:#1d99f3;fill-opacity:1;fill-rule:evenodd;stroke:none;stroke-width:1px;stroke-linecap:butt;stroke-linejoin:miter;stroke-opacity:1"
       d="m 82.515911,989.09212 c 8.185684,1.02146 8.888285,8.86122 7.751607,9.79992 0.851255,1.21076 -1.86664,6.31306 -3.003337,7.25176 0.844953,1.2093 -2.857432,6.1781 -3.99409,7.1167 0.844939,1.2092 -2.856818,6.1731 -3.993501,7.1119 -0.145434,1.074 -2.304468,3.1165 -7.388779,2.571 -3.115529,-0.3335 -1.598856,-3.3508 -0.462172,-4.2894 -0.844955,-1.2093 -0.191101,-5.943 0.945522,-6.8817 -0.844952,-1.2094 -0.261486,-5.5053 0.875163,-6.4437 -0.844933,-1.2093 1.021107,-7.51788 2.157735,-8.45658 -0.844942,-1.20915 -1.07399,-8.80092 7.111782,-7.77991 z"
       id="path4617-6-3-7"
       inkscape:connector-curvature="0"
       sodipodi:nodetypes="zccccsccccz" />
    <path
       style="fill:#1d99f3;fill-opacity:1;fill-rule:evenodd;stroke:none;stroke-width:1px;stroke-linecap:butt;stroke-linejoin:miter;stroke-opacity:1"
       d="m 43.75,1021.5748 c -1.25,1.1969 -3.75,0.5004 -3.75,0.5004 1.25,2.3937 5,6.287 10,6.287 5,0 8.75,-3.8933 10,-6.287 0,0 -2.5,0.6965 -3.75,-0.5004 -2.5,-2.3937 -5.3125,-0.8976 -6.25,0 -0.9375,-0.8976 -3.75,-2.3937 -6.25,0 z"
       id="path4885"
       inkscape:connector-curvature="0"
       sodipodi:nodetypes="sczcscs" />
    <path
       sodipodi:nodetypes="sssss"
       inkscape:connector-curvature="0"
       id="path4169"
       d="m 33.812281,994.27059 c -0.391226,1.63579 0.496317,2.40099 2.118358,2.79558 1.622034,0.39455 3.975834,0.26906 4.367084,-1.36671 0.391251,-1.63583 -0.639344,-2.81964 -2.261391,-3.21422 -1.622047,-0.39458 -3.832801,0.14952 -4.224051,1.78535 z"
       style="opacity:1;fill:#1d99f3;fill-opacity:1;stroke:none;stroke-width:0.5;stroke-linecap:butt;stroke-linejoin:round;stroke-miterlimit:4;stroke-dasharray:none;stroke-opacity:1" />
    <path
       sodipodi:nodetypes="sssss"
       inkscape:connector-curvature="0"
       id="path4169-0"
       d="m 66.187719,994.27059 c 0.391226,1.63579 -0.496317,2.40099 -2.118358,2.79558 -1.622034,0.39455 -3.975834,0.26906 -4.367084,-1.36671 -0.391251,-1.63583 0.639344,-2.81964 2.261391,-3.21422 1.622047,-0.39458 3.832801,0.14952 4.224051,1.78535 z"
       style="opacity:1;fill:#1d99f3;fill-opacity:1;stroke:none;stroke-width:0.5;stroke-linecap:butt;stroke-linejoin:round;stroke-miterlimit:4;stroke-dasharray:none;stroke-opacity:1" />
    <path
       inkscape:connector-curvature="0"
       id="path4280"
       d="m 50,1022.3622 c 2,0 8,0.5 8,0.5 0,0 -3,3 -8,3 -5,0 -8,-3 -8,-3 0,0 5,-0.5 8,-0.5"
       style="fill:#eff0f1;fill-opacity:1;fill-rule:evenodd;stroke:none;stroke-width:1px;stroke-linecap:butt;stroke-linejoin:miter;stroke-opacity:1"
       sodipodi:nodetypes="ccscc" />
  </g>
</svg>
