<?xml version="1.0" encoding="UTF-8" standalone="no"?>
<!-- Created with Inkscape (http://www.inkscape.org/) -->

<svg
   xmlns:dc="http://purl.org/dc/elements/1.1/"
   xmlns:cc="http://creativecommons.org/ns#"
   xmlns:rdf="http://www.w3.org/1999/02/22-rdf-syntax-ns#"
   xmlns:svg="http://www.w3.org/2000/svg"
   xmlns="http://www.w3.org/2000/svg"
   xmlns:xlink="http://www.w3.org/1999/xlink"
   xmlns:sodipodi="http://sodipodi.sourceforge.net/DTD/sodipodi-0.dtd"
   xmlns:inkscape="http://www.inkscape.org/namespaces/inkscape"
   inkscape:version="0.91 r13725"
   version="1.1"
   id="svg2"
   viewBox="0 0 99.999997 99.999997"
   height="100"
   width="100"
   sodipodi:docname="hero-alice-wonderland.svg">
  <sodipodi:namedview
     inkscape:window-maximized="0"
     inkscape:window-y="214"
     inkscape:window-x="570"
     inkscape:window-height="985"
     inkscape:window-width="1381"
     inkscape:bbox-nodes="false"
     inkscape:snap-bbox="true"
     units="px"
     showgrid="false"
     inkscape:current-layer="layer1"
     inkscape:document-units="px"
     inkscape:cy="56.906406"
     inkscape:cx="63.939602"
     inkscape:zoom="1"
     inkscape:pageshadow="2"
     inkscape:pageopacity="0.0"
     borderopacity="1.0"
     bordercolor="#666666"
     pagecolor="#ffffff"
     id="base"
     inkscape:object-nodes="false"
     inkscape:snap-smooth-nodes="false"
     inkscape:object-paths="true"
     inkscape:snap-nodes="true">
    <inkscape:grid
       id="grid4147"
       type="xygrid" />
  </sodipodi:namedview>
  <defs
     id="defs4">
    <linearGradient
       inkscape:collect="always"
       id="linearGradient4459">
      <stop
         style="stop-color:#000000;stop-opacity:1;"
         offset="0"
         id="stop4461" />
      <stop
         style="stop-color:#000000;stop-opacity:0;"
         offset="1"
         id="stop4463" />
    </linearGradient>
    <linearGradient
       inkscape:collect="always"
       xlink:href="#linearGradient4459"
       id="linearGradient4465"
       x1="47"
       y1="64"
       x2="60.125"
       y2="77.125"
       gradientUnits="userSpaceOnUse"
       gradientTransform="translate(1,949.36223)" />
    <linearGradient
       inkscape:collect="always"
       xlink:href="#linearGradient4459"
       id="linearGradient4475"
       x1="60.000046"
       y1="982.36224"
       x2="115"
       y2="1037.3622"
       gradientUnits="userSpaceOnUse" />
  </defs>
  <metadata
     id="metadata7">
    <rdf:RDF>
      <cc:Work
         rdf:about="">
        <dc:format>image/svg+xml</dc:format>
        <dc:type
           rdf:resource="http://purl.org/dc/dcmitype/StillImage" />
        <dc:title />
      </cc:Work>
    </rdf:RDF>
  </metadata>
  <g
     transform="translate(0,-952.36223)"
     id="layer1"
     inkscape:groupmode="layer"
     inkscape:label="Layer 1">
    <rect
       y="952.36224"
       x="-100"
       height="100"
       width="100"
       id="rect4151"
       style="opacity:1;fill:#1d99f3;fill-opacity:1;stroke:none;stroke-width:0.5;stroke-linecap:butt;stroke-linejoin:round;stroke-miterlimit:4;stroke-dasharray:none;stroke-opacity:1"
       transform="scale(-1,1)" />
    <path
       style="opacity:0.2;fill:url(#linearGradient4475);fill-opacity:1;fill-rule:evenodd;stroke:none;stroke-width:1px;stroke-linecap:butt;stroke-linejoin:miter;stroke-opacity:1"
       d="m 77,961.56225 23,22.99996 0,67.79999 -40,0 z"
       id="path4467"
       inkscape:connector-curvature="0"
       sodipodi:nodetypes="ccccc" />
    <path
       style="fill:#1d99f3;fill-rule:evenodd;stroke:none;stroke-width:1px;stroke-linecap:butt;stroke-linejoin:miter;stroke-opacity:1;fill-opacity:1"
       d="m 50,952.36223 c -35,0 -37,25 -35,49.99997 2.033115,25.4139 -5,45 -10,50 l 90,0 c -5,-5 -12.033115,-24.5861 -10,-50 2,-24.99997 0,-49.99997 -35,-49.99997 z"
       id="path4232"
       inkscape:connector-curvature="0"
       sodipodi:nodetypes="zsccsz" />
    <path
       style="fill:#eff0f1;fill-opacity:1;fill-rule:evenodd;stroke:none;stroke-width:1px;stroke-linecap:butt;stroke-linejoin:miter;stroke-opacity:1"
       d="m 70,1052.3622 c -5,-10 -3,-20 -3,-20 l -34,0 c 0,0 2,10 -3,20 z"
       id="path4596"
       inkscape:connector-curvature="0"
       sodipodi:nodetypes="ccccc" />
    <path
       sodipodi:nodetypes="zsszzzssz"
       inkscape:connector-curvature="0"
       id="path4164"
       d="m 50,962.36223 c 20.229275,-0.79366 30,11 29,21 -0.901044,9.01044 3.646927,4.47135 1,20.18747 -3.000003,17.8125 -7,24.8125 -12,29.8125 -5,5 -13.666667,4.625 -18,4.625 -4.333333,0 -13,0.375 -18,-4.625 -5,-5 -8.999997,-12 -12,-29.8125 -2.646927,-15.71611 3.901044,-11.17703 3,-20.18747 -1,-10 6.770725,-20.20634 27,-21 z"
       style="fill:#eff0f1;fill-rule:evenodd;stroke:none;stroke-width:1px;stroke-linecap:butt;stroke-linejoin:miter;stroke-opacity:1" />
    <path
       style="fill:#1d99f3;fill-opacity:1;fill-rule:evenodd;stroke:none;stroke-width:1px;stroke-linecap:butt;stroke-linejoin:miter;stroke-opacity:1"
       d="m 39,1021.5748 c 0.625,1.1968 3.152797,4.7702 11,4.7874 7.847203,0.017 10.375,-3.5905 11,-4.7874 0,0 -8.5,-0.7953 -11,-0.7953 -2.5,0 -11,0.7953 -11,0.7953 z"
       id="path4885"
       inkscape:connector-curvature="0"
       sodipodi:nodetypes="czcsc" />
    <path
       sodipodi:nodetypes="sssss"
       inkscape:connector-curvature="0"
       id="path4169"
       d="m 33.723326,996.44539 c -0.394336,1.94681 0.500263,2.8575 2.135201,3.32712 1.634932,0.46959 4.007447,0.32019 4.401808,-1.62656 0.394361,-1.94686 -0.644428,-3.35576 -2.279372,-3.82536 -1.634944,-0.46959 -3.863276,0.17795 -4.257637,2.1248 z"
       style="opacity:1;fill:#1d99f3;fill-opacity:1;stroke:none;stroke-width:0.5;stroke-linecap:butt;stroke-linejoin:round;stroke-miterlimit:4;stroke-dasharray:none;stroke-opacity:1" />
    <path
       sodipodi:nodetypes="sssss"
       inkscape:connector-curvature="0"
       id="path4169-0"
       d="m 66.276674,996.44539 c 0.394336,1.94681 -0.500263,2.8575 -2.135201,3.32712 -1.634932,0.46959 -4.007447,0.32019 -4.401808,-1.62656 -0.394361,-1.94686 0.644428,-3.35576 2.279372,-3.82536 1.634944,-0.46959 3.863276,0.17795 4.257637,2.1248 z"
       style="opacity:1;fill:#1d99f3;fill-opacity:1;stroke:none;stroke-width:0.5;stroke-linecap:butt;stroke-linejoin:round;stroke-miterlimit:4;stroke-dasharray:none;stroke-opacity:1" />
    <path
       style="fill:#eff0f1;fill-opacity:1;fill-rule:evenodd;stroke:none;stroke-width:1px;stroke-linecap:butt;stroke-linejoin:miter;stroke-opacity:1"
       d="m 45,1021.8776 c 0.284091,0.3712 1.433089,1.4793 5,1.4846 3.566911,0.01 4.715909,-1.1134 5,-1.4846 0,0 -3.863637,-0.2466 -5,-0.2466 -1.136363,0 -5,0.2466 -5,0.2466 z"
       id="path4885-4"
       inkscape:connector-curvature="0"
       sodipodi:nodetypes="czcsc" />
    <path
       style="fill:#1d99f3;fill-opacity:1;fill-rule:evenodd;stroke:none;stroke-width:1px;stroke-linecap:butt;stroke-linejoin:miter;stroke-opacity:1"
       d="m 56.895239,955.72342 c -11.896408,10.05359 -16.236599,21.33194 -2.094463,23.0997 14.142135,1.76777 12.615021,11.00326 16.240863,13.76716 3.625842,2.76389 10.595045,5.17019 10.719676,-7.10488 0.208766,-20.56168 -24.866076,-29.76198 -24.866076,-29.76198 z"
       id="path4170"
       inkscape:connector-curvature="0"
       sodipodi:nodetypes="csssc" />
    <path
       style="fill:#1d99f3;fill-opacity:1;fill-rule:evenodd;stroke:none;stroke-width:1px;stroke-linecap:butt;stroke-linejoin:miter;stroke-opacity:1"
       d="m 51.497168,960.94903 c 2.149247,17.70178 -29.207945,26.48888 -29.207945,26.48888 L 15.55066,977.5059 27.577165,962.73644 Z"
       id="path4172"
       inkscape:connector-curvature="0"
       sodipodi:nodetypes="ccccc" />
    <path
       style="fill:#2ecc71;fill-rule:evenodd;stroke:none;stroke-width:1px;stroke-linecap:butt;stroke-linejoin:miter;stroke-opacity:1;fill-opacity:1"
       d="m 20,982.36223 c 0,0 5,-20 30,-20 25,0 30,20 30,20 0,0 0,-25 -30,-25 -30,0 -30,25 -30,25 z"
       id="path4174"
       inkscape:connector-curvature="0" />
    <path
       style="fill:#eff0f1;fill-rule:evenodd;stroke:none;stroke-width:1px;stroke-linecap:butt;stroke-linejoin:miter;stroke-opacity:1;fill-opacity:1"
       d="m 19,1003.3622 c 0,0 0,-11.99997 -5,-9.99997 -5,2 -0.727604,9.78727 0,10.99997 3,5 5,-1 5,-1 z"
       id="path4176"
       inkscape:connector-curvature="0"
       sodipodi:nodetypes="cssc" />
    <path
       style="fill:#eff0f1;fill-opacity:1;fill-rule:evenodd;stroke:none;stroke-width:1px;stroke-linecap:butt;stroke-linejoin:miter;stroke-opacity:1"
       d="m 81,1003.3622 c 0,0 0,-11.99997 5,-9.99997 4.999999,2 0.727604,9.78727 0,10.99997 -3,5 -5,-1 -5,-1 z"
       id="path4176-5"
       inkscape:connector-curvature="0"
       sodipodi:nodetypes="cssc" />
    <path
       style="fill:#1d99f3;fill-opacity:1;fill-rule:evenodd;stroke:none;stroke-width:1px;stroke-linecap:butt;stroke-linejoin:miter;stroke-opacity:1"
       d="m 39.277027,1021.5589 c 0,0 1.281631,-1.6394 -0.579972,-0.8948 -1.861603,0.7447 -0.447679,1.5227 -0.176777,1.9742 1.116962,1.8616 0.756749,-1.0794 0.756749,-1.0794 z"
       id="path4176-6"
       inkscape:connector-curvature="0"
       sodipodi:nodetypes="cssc" />
    <path
       style="fill:#1d99f3;fill-opacity:1;fill-rule:evenodd;stroke:none;stroke-width:1px;stroke-linecap:butt;stroke-linejoin:miter;stroke-opacity:1"
       d="m 60.900112,1021.5589 c 0,0 -1.281631,-1.6394 0.579972,-0.8948 1.861603,0.7447 0.447679,1.5227 0.176777,1.9742 -1.116962,1.8616 -0.756749,-1.0794 -0.756749,-1.0794 z"
       id="path4176-6-6"
       inkscape:connector-curvature="0"
       sodipodi:nodetypes="cssc" />
    <path
       style="opacity:0.1;fill:url(#linearGradient4465);fill-opacity:1;fill-rule:evenodd;stroke:none;stroke-width:1px;stroke-linecap:butt;stroke-linejoin:miter;stroke-opacity:1"
       d="m 50.404297,1004.3622 -2.598047,9.5003 18.1875,18.1875 8.601953,-3.4944 z"
       id="path4407"
       inkscape:connector-curvature="0"
       sodipodi:nodetypes="ccccc" />
    <path
       sodipodi:nodetypes="ssssss"
       inkscape:connector-curvature="0"
       id="path4188"
       d="m 52,1006.3622 c 1.493586,2.2404 2.5,4.25 2,5.375 -0.5,1.125 -1,2.625 -4,2.625 -3,0 -3.5,-1.5 -4,-2.625 -0.5,-1.125 0.506414,-3.1346 2,-5.375 2,-3 2,-3 4,0 z"
       style="fill:#2ecc71;fill-rule:evenodd;stroke:none;stroke-width:1px;stroke-linecap:butt;stroke-linejoin:miter;stroke-opacity:1" />
  </g>
</svg>
