<?xml version="1.0" encoding="UTF-8" standalone="no"?>
<!-- Created with Inkscape (http://www.inkscape.org/) -->

<svg
   xmlns:dc="http://purl.org/dc/elements/1.1/"
   xmlns:cc="http://creativecommons.org/ns#"
   xmlns:rdf="http://www.w3.org/1999/02/22-rdf-syntax-ns#"
   xmlns:svg="http://www.w3.org/2000/svg"
   xmlns="http://www.w3.org/2000/svg"
   xmlns:xlink="http://www.w3.org/1999/xlink"
   xmlns:sodipodi="http://sodipodi.sourceforge.net/DTD/sodipodi-0.dtd"
   xmlns:inkscape="http://www.inkscape.org/namespaces/inkscape"
   inkscape:version="0.91 r13725"
   version="1.1"
   id="svg2"
   viewBox="0 0 99.999997 99.999997"
   height="100"
   width="100"
   sodipodi:docname="hero-grace-hopper.svg">
  <sodipodi:namedview
     inkscape:window-maximized="0"
     inkscape:window-y="214"
     inkscape:window-x="570"
     inkscape:window-height="985"
     inkscape:window-width="1381"
     inkscape:bbox-nodes="true"
     inkscape:snap-bbox="true"
     units="px"
     showgrid="false"
     inkscape:current-layer="layer1"
     inkscape:document-units="px"
     inkscape:cy="50.593224"
     inkscape:cx="52.154062"
     inkscape:zoom="1"
     inkscape:pageshadow="2"
     inkscape:pageopacity="0.0"
     borderopacity="1.0"
     bordercolor="#666666"
     pagecolor="#ffffff"
     id="base"
     inkscape:object-nodes="true"
     inkscape:snap-smooth-nodes="true"
     inkscape:object-paths="true"
     inkscape:snap-nodes="true">
    <inkscape:grid
       id="grid4147"
       type="xygrid" />
  </sodipodi:namedview>
  <defs
     id="defs4">
    <linearGradient
       inkscape:collect="always"
       id="linearGradient4459">
      <stop
         style="stop-color:#000000;stop-opacity:1;"
         offset="0"
         id="stop4461" />
      <stop
         style="stop-color:#000000;stop-opacity:0;"
         offset="1"
         id="stop4463" />
    </linearGradient>
    <linearGradient
       inkscape:collect="always"
       xlink:href="#linearGradient4459"
       id="linearGradient4465"
       x1="46"
       y1="63"
       x2="60.125"
       y2="77.125"
       gradientUnits="userSpaceOnUse"
       gradientTransform="translate(-1,947.36223)" />
    <linearGradient
       inkscape:collect="always"
       xlink:href="#linearGradient4459"
       id="linearGradient4475"
       x1="60.000046"
       y1="982.36224"
       x2="115"
       y2="1037.3622"
       gradientUnits="userSpaceOnUse" />
  </defs>
  <metadata
     id="metadata7">
    <rdf:RDF>
      <cc:Work
         rdf:about="">
        <dc:format>image/svg+xml</dc:format>
        <dc:type
           rdf:resource="http://purl.org/dc/dcmitype/StillImage" />
        <dc:title />
      </cc:Work>
    </rdf:RDF>
  </metadata>
  <g
     transform="translate(0,-952.36223)"
     id="layer1"
     inkscape:groupmode="layer"
     inkscape:label="Layer 1">
    <rect
       y="952.36224"
       x="-100"
       height="100"
       width="100"
       id="rect4151"
       style="opacity:1;fill:#1d99f3;fill-opacity:1;stroke:none;stroke-width:0.5;stroke-linecap:butt;stroke-linejoin:round;stroke-miterlimit:4;stroke-dasharray:none;stroke-opacity:1"
       transform="scale(-1,1)" />
    <path
       style="opacity:0.2;fill:url(#linearGradient4475);fill-opacity:1;fill-rule:evenodd;stroke:none;stroke-width:1px;stroke-linecap:butt;stroke-linejoin:miter;stroke-opacity:1"
       d="m 77,968.36225 23,22.99996 0,60.99999 -40,0 z"
       id="path4467"
       inkscape:connector-curvature="0"
       sodipodi:nodetypes="ccccc" />
    <path
       style="fill:#1d99f3;fill-rule:evenodd;stroke:none;stroke-width:1px;stroke-linecap:butt;stroke-linejoin:miter;stroke-opacity:1"
       d="M 50,5 C 25,5 10,25 15,50 c 4.902903,24.514517 11,20 6,25 -5,5 0,10 5,15 5,5 14,5 14,5 l 10,0 10,0 c 0,0 9,0 14,-5 5,-5 10,-10 5,-15 -5,-5 1.097097,-0.485483 6,-25 C 90,25 75,5 50,5 Z"
       id="path4232"
       inkscape:connector-curvature="0"
       sodipodi:nodetypes="sssscccssss"
       transform="translate(0,952.36223)" />
    <path
       sodipodi:nodetypes="ccscsssc"
       inkscape:connector-curvature="0"
       id="path4245-7-9"
       d="m 77.096252,987.36347 c -0.789866,-0.0111 -1.64108,0.0562 -2.531302,0.17313 1.250299,4.39337 2.093337,9.22698 2.43075,14.5756 0.230555,3.6546 -0.782921,8.0585 -0.9957,11.25 3.56495,1 5.84368,-2.7781 5.19697,-5.419 -0.63202,-2.581 2.98018,-5.2211 2.28068,-13.22325 -0.43718,-5.00142 -1.7842,-7.28864 -6.381469,-7.35648 z"
       style="fill:#eff0f1;fill-opacity:1;fill-rule:evenodd;stroke:none;stroke-width:1px;stroke-linecap:butt;stroke-linejoin:miter;stroke-opacity:1" />
    <path
       style="fill:#eff0f1;fill-opacity:1;fill-rule:evenodd;stroke:none;stroke-width:1px;stroke-linecap:butt;stroke-linejoin:miter;stroke-opacity:1"
       d="m 70,1052.3622 c -5,-10 -3,-20 -3,-20 l -34,0 c 0,0 2,10 -3,20 z"
       id="path4596"
       inkscape:connector-curvature="0"
       sodipodi:nodetypes="ccccc" />
    <path
       sodipodi:nodetypes="ccscsssc"
       inkscape:connector-curvature="0"
       id="path4245-7"
       d="m 23.468698,987.36347 c 0.789866,-0.0111 1.64108,0.0562 2.531302,0.17313 -1.250299,4.39337 -2.093337,9.22698 -2.43075,14.5756 -0.230555,3.6546 0.782921,8.0585 0.9957,11.25 -3.56495,1 -5.843684,-2.7781 -5.196974,-5.419 0.632024,-2.581 -2.980174,-5.2211 -2.280679,-13.22325 0.437185,-5.00142 1.784199,-7.28864 6.381472,-7.35648 z"
       style="fill:#eff0f1;fill-opacity:1;fill-rule:evenodd;stroke:none;stroke-width:1px;stroke-linecap:butt;stroke-linejoin:miter;stroke-opacity:1" />
    <path
       sodipodi:nodetypes="zsszzzssz"
       inkscape:connector-curvature="0"
       id="path4164"
       d="m 50,962.36223 c 20.229275,-0.79366 30,11 29,21 -0.901044,9.01044 3.646927,4.47135 1,20.18747 -3.000003,17.8125 -7,24.8125 -12,29.8125 -5,5 -13.666667,4.625 -18,4.625 -4.333333,0 -13,0.375 -18,-4.625 -5,-5 -8.999997,-12 -12,-29.8125 -2.646927,-15.71611 3.901044,-11.17703 3,-20.18747 -1,-10 6.770725,-20.20634 27,-21 z"
       style="fill:#eff0f1;fill-rule:evenodd;stroke:none;stroke-width:1px;stroke-linecap:butt;stroke-linejoin:miter;stroke-opacity:1" />
    <path
       style="opacity:0.1;fill:url(#linearGradient4465);fill-opacity:1;fill-rule:evenodd;stroke:none;stroke-width:1px;stroke-linecap:butt;stroke-linejoin:miter;stroke-opacity:1"
       d="m 50,994.36223 -4.19375,16.99997 18.1875,18.1875 10.197656,-10.9941 z"
       id="path4407"
       inkscape:connector-curvature="0"
       sodipodi:nodetypes="ccccc" />
    <path
       sodipodi:nodetypes="sssssss"
       inkscape:connector-curvature="0"
       id="path4188"
       d="m 50,995.3622 c 1.5,0 2.143041,6.3576 4,11 1,2.5 2.5,4.25 2,5.375 -0.5,1.125 -3,2.625 -6,2.625 -3,0 -5.5,-1.5 -6,-2.625 -0.5,-1.125 1,-2.875 2,-5.375 1.856959,-4.6424 2.5,-11 4,-11 z"
       style="fill:#2ecc71;fill-rule:evenodd;stroke:none;stroke-width:1px;stroke-linecap:butt;stroke-linejoin:miter;stroke-opacity:1" />
    <path
       style="fill:#1d99f3;fill-opacity:1;fill-rule:evenodd;stroke:none;stroke-width:1px;stroke-linecap:butt;stroke-linejoin:miter;stroke-opacity:1"
       d="m 43.75,1020.5748 c -1.250025,1.1969 -4.75,1 -4.75,1 0.625,1.1968 2.125,2.1437 4.09375,2.7913 1.96875,0.6477 4.40625,1.9961 6.90625,1.9961 2.5,0 4.9375,-1.3484 6.90625,-1.9961 1.96875,-0.6476 3.46875,-1.5944 4.09375,-2.7913 0,0 -3.499975,0.1969 -4.75,-1 -1.25,-1.1968 -3.75,0.2047 -6.25,0.2047 -2.5,0 -5,-1.4015 -6.25,-0.2047 z"
       id="path4885"
       inkscape:connector-curvature="0"
       sodipodi:nodetypes="scssscsss" />
    <path
       style="fill:#2ecc71;fill-opacity:1;fill-rule:evenodd;stroke:none;stroke-width:1px;stroke-linecap:butt;stroke-linejoin:miter;stroke-opacity:1"
       d="m 37,988.36223 c -5,0 -10,1 -12,2 -2,1 -4,2 -4,3 0,1 4,0 5,2 1,1.99997 2,6.99997 7,8.99997 5,2 11,2 13,-5 2,-6.99997 3,-6.99997 4,-6.99997 1,0 2,0 4,6.99997 2,7 8,7 13,5 5,-2 6,-7 7,-8.99997 1,-2 5,-1 5,-2 0,-1 -2,-2 -4,-3 -2,-1 -7,-2 -12,-2 -5,0 -9,2 -13,2 -4,0 -8,-2 -13,-2 z m 0.3125,1.625 c 1.1875,0 2.4375,0.125 3.6875,0.375 5,1 5,6 3,9.99997 -2,4 -7,5 -13,1 -2,-2 -2,-4.99997 -1,-7.99997 0.75,-2.25 3.75,-3.375 7.3125,-3.375 z m 25.375,0 c 3.5625,0 6.5625,1.125 7.3125,3.375 1,3 1,6.00007 -1,7.99997 -6,4 -11,3 -13,-1 -2,-3.99994 -2,-8.99997 3,-9.99997 1.25,-0.25 2.5,-0.375 3.6875,-0.375 z"
       id="path4172"
       inkscape:connector-curvature="0"
       sodipodi:nodetypes="sssssszssssssssssscsssscsss" />
    <path
       style="opacity:1;fill:#2ecc71;fill-opacity:1;stroke:none;stroke-width:2;stroke-linecap:round;stroke-linejoin:round;stroke-miterlimit:4;stroke-dasharray:none;stroke-opacity:1"
       d="m 79,1010.3622 a 1,1 0 0 0 -1,1 1,1 0 0 0 0.683594,0.9473 L 78,1014.3622 l 1,1 1,-1 -0.683594,-2.0527 A 1,1 0 0 0 80,1011.3622 a 1,1 0 0 0 -1,-1 z"
       id="path4282"
       inkscape:connector-curvature="0" />
    <path
       inkscape:connector-curvature="0"
       style="opacity:1;fill:#2ecc71;fill-opacity:1;stroke:none;stroke-width:2;stroke-linecap:round;stroke-linejoin:round;stroke-miterlimit:4;stroke-dasharray:none;stroke-opacity:1"
       d="m 21,1010.3622 a 1,1 0 0 0 -1,1 1,1 0 0 0 0.683594,0.9473 L 20,1014.3622 l 1,1 1,-1 -0.683594,-2.0527 A 1,1 0 0 0 22,1011.3622 a 1,1 0 0 0 -1,-1 z"
       id="path4282-7" />
    <path
       style="fill:#1d99f3;fill-opacity:1;fill-rule:evenodd;stroke:none;stroke-width:1px;stroke-linecap:butt;stroke-linejoin:miter;stroke-opacity:1"
       d="M 79.836462,978.56135 C 69.375,958.23723 48.959709,970.35487 48.959709,970.35487 c 0,0 -7.140978,-15.04309 -20.403266,-0.96063 -10.085626,10.70934 -5.58811,10.9524 -5.58811,10.9524 l 3.030485,-14.82655 16.938153,-7.59397 23.96968,3.04035 L 77,968.36225 l 5.718672,8.7839 z"
       id="path4302"
       inkscape:connector-curvature="0"
       sodipodi:nodetypes="ccsccccccc" />
    <path
       sodipodi:nodetypes="sssss"
       inkscape:connector-curvature="0"
       id="path4169"
       d="m 33.812281,995.27059 c -0.391226,1.63579 0.496317,2.40099 2.118358,2.79558 1.622034,0.39455 3.975834,0.26906 4.367084,-1.36671 0.391251,-1.63583 -0.639344,-2.81964 -2.261391,-3.21422 -1.622047,-0.39458 -3.832801,0.14952 -4.224051,1.78535 z"
       style="opacity:1;fill:#1d99f3;fill-opacity:1;stroke:none;stroke-width:0.5;stroke-linecap:butt;stroke-linejoin:round;stroke-miterlimit:4;stroke-dasharray:none;stroke-opacity:1" />
    <path
       sodipodi:nodetypes="sssss"
       inkscape:connector-curvature="0"
       id="path4169-0"
       d="m 66.187719,995.27059 c 0.391226,1.63579 -0.496317,2.40099 -2.118358,2.79558 -1.622034,0.39455 -3.975834,0.26906 -4.367084,-1.36671 -0.391251,-1.63583 0.639344,-2.81964 2.261391,-3.21422 1.622047,-0.39458 3.832801,0.14952 4.224051,1.78535 z"
       style="opacity:1;fill:#1d99f3;fill-opacity:1;stroke:none;stroke-width:0.5;stroke-linecap:butt;stroke-linejoin:round;stroke-miterlimit:4;stroke-dasharray:none;stroke-opacity:1" />
  </g>
</svg>
