<?xml version="1.0" encoding="UTF-8" standalone="no"?>
<!-- Created with Inkscape (http://www.inkscape.org/) -->

<svg
   xmlns:dc="http://purl.org/dc/elements/1.1/"
   xmlns:cc="http://creativecommons.org/ns#"
   xmlns:rdf="http://www.w3.org/1999/02/22-rdf-syntax-ns#"
   xmlns:svg="http://www.w3.org/2000/svg"
   xmlns="http://www.w3.org/2000/svg"
   xmlns:xlink="http://www.w3.org/1999/xlink"
   xmlns:sodipodi="http://sodipodi.sourceforge.net/DTD/sodipodi-0.dtd"
   xmlns:inkscape="http://www.inkscape.org/namespaces/inkscape"
   inkscape:version="0.91 r13725"
   version="1.1"
   id="svg2"
   viewBox="0 0 99.999997 99.999997"
   height="100"
   width="100"
   sodipodi:docname="hero-leonardo-da-vinci.svg">
  <sodipodi:namedview
     inkscape:window-maximized="0"
     inkscape:window-y="387"
     inkscape:window-x="611"
     inkscape:window-height="985"
     inkscape:window-width="1381"
     inkscape:bbox-nodes="true"
     inkscape:snap-bbox="true"
     units="px"
     showgrid="true"
     inkscape:current-layer="layer1"
     inkscape:document-units="px"
     inkscape:cy="52.98625"
     inkscape:cx="61.778044"
     inkscape:zoom="1"
     inkscape:pageshadow="2"
     inkscape:pageopacity="0.0"
     borderopacity="1.0"
     bordercolor="#666666"
     pagecolor="#ffffff"
     id="base"
     inkscape:object-nodes="true"
     inkscape:snap-smooth-nodes="true"
     inkscape:object-paths="true"
     inkscape:snap-nodes="true">
    <inkscape:grid
       id="grid4147"
       type="xygrid" />
  </sodipodi:namedview>
  <defs
     id="defs4">
    <linearGradient
       inkscape:collect="always"
       id="linearGradient4459">
      <stop
         style="stop-color:#000000;stop-opacity:1;"
         offset="0"
         id="stop4461" />
      <stop
         style="stop-color:#000000;stop-opacity:0;"
         offset="1"
         id="stop4463" />
    </linearGradient>
    <linearGradient
       inkscape:collect="always"
       xlink:href="#linearGradient4459"
       id="linearGradient4465"
       x1="46"
       y1="63"
       x2="60.125"
       y2="77.125"
       gradientUnits="userSpaceOnUse"
       gradientTransform="translate(-1,947.36223)" />
    <linearGradient
       inkscape:collect="always"
       xlink:href="#linearGradient4459"
       id="linearGradient4475"
       x1="60.000046"
       y1="982.36224"
       x2="115"
       y2="1037.3622"
       gradientUnits="userSpaceOnUse" />
  </defs>
  <metadata
     id="metadata7">
    <rdf:RDF>
      <cc:Work
         rdf:about="">
        <dc:format>image/svg+xml</dc:format>
        <dc:type
           rdf:resource="http://purl.org/dc/dcmitype/StillImage" />
        <dc:title />
      </cc:Work>
    </rdf:RDF>
  </metadata>
  <g
     transform="translate(0,-952.36223)"
     id="layer1"
     inkscape:groupmode="layer"
     inkscape:label="Layer 1">
    <rect
       y="952.36224"
       x="-100"
       height="100"
       width="100"
       id="rect4151"
       style="opacity:1;fill:#1d99f3;fill-opacity:1;stroke:none;stroke-width:0.5;stroke-linecap:butt;stroke-linejoin:round;stroke-miterlimit:4;stroke-dasharray:none;stroke-opacity:1"
       transform="scale(-1,1)" />
    <path
       style="opacity:0.2;fill:url(#linearGradient4475);fill-opacity:1;fill-rule:evenodd;stroke:none;stroke-width:1px;stroke-linecap:butt;stroke-linejoin:miter;stroke-opacity:1"
       d="m 70,969.36225 30,29.99996 0,52.99999 -21,0 z"
       id="path4467"
       inkscape:connector-curvature="0"
       sodipodi:nodetypes="ccccc" />
    <path
       style="fill:#eff0f1;fill-opacity:1;fill-rule:evenodd;stroke:none;stroke-width:1px;stroke-linecap:butt;stroke-linejoin:miter;stroke-opacity:1"
       d="m 83,46 -1.638672,3.142578 C 81,52.999978 80.621954,62.8923 85,68 c 5.300882,6.1844 1.495491,13.995 6,19 4.504509,5.005 0,6.349 3,11 0.654002,1.014 1.947242,1.81076 3.486328,2.44336 l 0.445313,5.76953 C 98.983362,106.66279 100,107.0918 100,107.0918 l -0.513672,-6.64844 C 97.947242,99.81076 96.654002,99.014 96,98 93,93.349 97.504509,92.005 93,87 88.495491,81.995 92.300882,74.1844 87,68 81.699118,61.8156 84.025769,49.38427 83,46 Z m -3,2 -13,19 c 2,4 -0.679687,5.208984 2.320312,9.208984 2.683295,3.5777 -1.375,8.763672 1.625,11.763672 C 73.494835,90.522156 74,99.0001 77,103 c 2.473875,3.2985 20,8.0918 20,8.0918 l -0.513672,-9.64844 C 94.947242,100.81076 93.654002,100.014 93,99 90,94.349 94.504509,93.005 90,88 85.495491,82.995 89.300882,75.1844 84,69 78.699118,62.8156 80,51 80,48 Z M 65.740234,64.869141 58,70 c 2,4 0,5 3,9 2.683294,3.5777 -2,12 1,15 2.549523,2.5495 2,9.0001 5,13 2.473875,3.2985 10,1 10,1 l 1.486328,-2.20703 C 76.947242,105.16037 75.654002,104.36351 75,103.34961 72,98.698608 72.494836,92.331688 69.945312,89.367188 c -3,-3.4884 0.0583,-8.556697 -2.625,-12.716797 -2.521124,-3.9087 -0.554309,-8.39695 -1.580078,-11.78125 z M 50,67 43,69 c -2,4 0,6 -3,10 -2.683294,3.5777 2,9 -1,12 -2.549523,2.5495 0,8.0001 -3,12 -2.473875,3.2985 14,5 14,5 0,0 18.473875,2.2985 16,-1 -3,-3.9999 -3.450477,-8.4505 -6,-11 -3,-3 2.683294,-13.4223 0,-17 -3,-4 -1,-6 -3,-10 z"
       transform="translate(0,952.36223)"
       id="path5055-4-2-6-2"
       inkscape:connector-curvature="0"
       sodipodi:nodetypes="ccssccccccsscccssscccsscccsssccscscccssscssscc" />
    <path
       sodipodi:nodetypes="cscssc"
       inkscape:connector-curvature="0"
       id="path4245"
       d="m 78,984.48776 c 0.835425,3.16322 1.398726,8.64344 1.624179,12.49444 0.154052,2.6313 0.145048,5.0821 0.0029,7.38 2.17596,-0.5526 2.372921,-2 2.804335,-3.9017 0.414542,-1.8274 1.991293,-5.0392 1.523904,-10.80074 C 83.6632,986.05875 78.594829,984.40361 78,984.48776 Z"
       style="fill:#eff0f1;fill-opacity:1;fill-rule:evenodd;stroke:none;stroke-width:1px;stroke-linecap:butt;stroke-linejoin:miter;stroke-opacity:1" />
    <path
       sodipodi:nodetypes="sszzzss"
       inkscape:connector-curvature="0"
       id="path4164"
       d="m 50,962.36223 c 12,0 30,5.31256 30,37.1875 0,7.81247 -3,12.81247 -10,17.81247 -7,5 0,5.3751 -20,5 -20,-0.375 -13,0 -20,-5 -7,-5 -10,-10 -10,-17.81247 0,-31.87494 18,-37.1875 30,-37.1875 z"
       style="fill:#eff0f1;fill-rule:evenodd;stroke:none;stroke-width:1px;stroke-linecap:butt;stroke-linejoin:miter;stroke-opacity:1" />
    <path
       style="fill:#eff0f1;fill-opacity:1;fill-rule:evenodd;stroke:none;stroke-width:1px;stroke-linecap:butt;stroke-linejoin:miter;stroke-opacity:1"
       d="M 34.259766,64.869141 C 33.233997,68.253492 33.521124,70.532656 31,74.441406 c -2.683294,4.1601 1,10.464725 -2,13.953125 -2.549523,2.9645 0,9.304078 -3,13.955079 -0.654002,1.01396 -1.947242,1.81077 -3.486328,2.44336 L 22,107 c 0,0 10.526125,-1.7015 13,-5 3,-3.9999 -0.549523,-8.4505 2,-11 3,-3 -0.683294,-8.4223 2,-12 3,-4 1,-5 3,-9 z"
       transform="translate(0,952.36223)"
       id="path5055-4"
       inkscape:connector-curvature="0"
       sodipodi:nodetypes="csccccssscc" />
    <path
       inkscape:connector-curvature="0"
       style="fill:#eff0f1;fill-opacity:1;fill-rule:evenodd;stroke:none;stroke-width:1px;stroke-linecap:butt;stroke-linejoin:miter;stroke-opacity:1"
       d="m 20,1000.3622 c 0,3 0.300882,12.8156 -5,19 -5.3008824,6.1844 1.504509,12.995 -3,18 -4.5045094,5.005 0,10.349 -3,15 -0.654002,1.014 -1.947242,1.8108 -3.486328,2.4434 L 5,1064.454 c 0,0 16.526125,-6.7933 19,-10.0918 3,-3.9999 1.450477,-12.4505 4,-15 3,-3 -1.683294,-8.4223 1,-12 3,-4 2,-4 4,-8 z"
       id="path5055-4-2"
       sodipodi:nodetypes="czzcccssscc" />
    <path
       style="fill:#eff0f1;fill-opacity:1;fill-rule:evenodd;stroke:none;stroke-width:1px;stroke-linecap:butt;stroke-linejoin:miter;stroke-opacity:1"
       d="m 17,998.3622 c -1.025769,3.3843 0.300882,13.8156 -5,20 -5.3008824,6.1844 1.504509,12.995 -3,18 -4.5045094,5.005 0,10.349 -3,15 -0.654002,1.014 -1.9472421,1.8108 -3.4863281,2.4434 L 2,1060.454 c 0,0 1.0166376,-0.429 2.0683594,-0.8789 l 0.4453125,-5.7695 C 6.0527579,1053.173 7.345998,1052.3762 8,1051.3622 c 3,-4.651 -1.5045094,-9.995 3,-15 4.504509,-5.005 -2.3008824,-11.8156 3,-18 4.378046,-5.1077 5,-13 4.638672,-16.8574 z"
       id="path5055-4-2-6"
       inkscape:connector-curvature="0"
       sodipodi:nodetypes="cssccccccsscc" />
    <path
       sodipodi:nodetypes="cscssc"
       inkscape:connector-curvature="0"
       id="path4245-5"
       d="m 22.041051,984.48776 c -0.835425,3.16322 -1.398726,8.64344 -1.624179,12.49444 -0.154052,2.6313 -0.145048,5.0821 -0.0029,7.38 -2.17596,-0.5526 -2.372921,-2 -2.804335,-3.9017 -0.414542,-1.8274 -1.991293,-5.0392 -1.523904,-10.80074 0.292118,-3.60101 5.360489,-5.25615 5.955318,-5.172 z"
       style="fill:#eff0f1;fill-opacity:1;fill-rule:evenodd;stroke:none;stroke-width:1px;stroke-linecap:butt;stroke-linejoin:miter;stroke-opacity:1" />
    <path
       style="fill:#eff0f1;fill-rule:evenodd;stroke:none;stroke-width:1px;stroke-linecap:butt;stroke-linejoin:miter;stroke-opacity:1;fill-opacity:1"
       d="m 77,983.36223 c 2,0 4,1 4,1 0,0 -4,-12 -12,-16 -8,-4 8,15 8,15 z"
       id="path5211"
       inkscape:connector-curvature="0" />
    <path
       style="fill:#eff0f1;fill-opacity:1;fill-rule:evenodd;stroke:none;stroke-width:1px;stroke-linecap:butt;stroke-linejoin:miter;stroke-opacity:1"
       d="m 23,983.36223 c -2,0 -4,1 -4,1 0,0 4,-12 12,-16 8,-4 -8,15 -8,15 z"
       id="path5211-6"
       inkscape:connector-curvature="0" />
    <path
       style="fill:#1d99f3;fill-opacity:1;fill-rule:evenodd;stroke:none;stroke-width:1px;stroke-linecap:butt;stroke-linejoin:miter;stroke-opacity:1"
       d="m 41.40625,1021.8329 c -0.264635,0.8462 -0.370354,2.6096 -0.435547,3.3418 1.758519,1.1374 5.364021,3.1875 9.029297,3.1875 3.665276,0 7.270778,-2.0501 9.029297,-3.1875 -0.06519,-0.7322 -0.170912,-2.4956 -0.435547,-3.3418 -2.157887,0.2601 -5.98893,0.5293 -8.59375,0.5293 -2.60482,0 -6.435863,-0.2692 -8.59375,-0.5293 z"
       id="path4158"
       inkscape:connector-curvature="0"
       sodipodi:nodetypes="ccsccsc" />
    <path
       style="opacity:0.1;fill:url(#linearGradient4465);fill-opacity:1;fill-rule:evenodd;stroke:none;stroke-width:1px;stroke-linecap:butt;stroke-linejoin:miter;stroke-opacity:1"
       d="m 50,993.36223 -6.19375,17.99997 18.1875,18.1875 12.197656,-11.9941 z"
       id="path4407"
       inkscape:connector-curvature="0"
       sodipodi:nodetypes="ccccc" />
    <path
       sodipodi:nodetypes="sszss"
       inkscape:connector-curvature="0"
       id="path4188"
       d="m 50,993.3622 c 1.5,0 3.030405,7.4043 5,12 3,7 2,7 -5,7 -7,0 -8,0 -5,-7 1.969595,-4.5957 3.5,-12 5,-12 z"
       style="fill:#2ecc71;fill-rule:evenodd;stroke:none;stroke-width:1px;stroke-linecap:butt;stroke-linejoin:miter;stroke-opacity:1" />
    <path
       sodipodi:nodetypes="sssss"
       inkscape:connector-curvature="0"
       id="path4169"
       d="m 34.135301,989.18474 c 1.830325,-0.43775 2.686519,0.55534 3.12804,2.37028 0.441453,1.81493 0.301053,4.44864 -1.529238,4.88642 -1.830367,0.43778 -3.154965,-0.71537 -3.596465,-2.53032 -0.441494,-1.81494 0.167296,-4.2886 1.997663,-4.72638 z"
       style="opacity:1;fill:#1d99f3;fill-opacity:1;stroke:none;stroke-width:0.5;stroke-linecap:butt;stroke-linejoin:round;stroke-miterlimit:4;stroke-dasharray:none;stroke-opacity:1" />
    <path
       sodipodi:nodetypes="sssss"
       inkscape:connector-curvature="0"
       id="path4169-0"
       d="m 65.864699,989.18474 c -1.830325,-0.43775 -2.686519,0.55534 -3.12804,2.37028 -0.441453,1.81493 -0.301053,4.44864 1.529238,4.88642 1.830367,0.43778 3.154965,-0.71537 3.596465,-2.53032 0.441494,-1.81494 -0.167296,-4.2886 -1.997663,-4.72638 z"
       style="opacity:1;fill:#1d99f3;fill-opacity:1;stroke:none;stroke-width:0.5;stroke-linecap:butt;stroke-linejoin:round;stroke-miterlimit:4;stroke-dasharray:none;stroke-opacity:1" />
  </g>
</svg>
