<?xml version="1.0" encoding="UTF-8" standalone="no"?>
<!-- Created with Inkscape (http://www.inkscape.org/) -->

<svg
   xmlns:dc="http://purl.org/dc/elements/1.1/"
   xmlns:cc="http://creativecommons.org/ns#"
   xmlns:rdf="http://www.w3.org/1999/02/22-rdf-syntax-ns#"
   xmlns:svg="http://www.w3.org/2000/svg"
   xmlns="http://www.w3.org/2000/svg"
   xmlns:xlink="http://www.w3.org/1999/xlink"
   xmlns:sodipodi="http://sodipodi.sourceforge.net/DTD/sodipodi-0.dtd"
   xmlns:inkscape="http://www.inkscape.org/namespaces/inkscape"
   inkscape:version="0.91 r13725"
   version="1.1"
   id="svg2"
   viewBox="0 0 99.999997 99.999997"
   height="100"
   width="100"
   sodipodi:docname="hero-mahatma-gandhi.svg">
  <sodipodi:namedview
     inkscape:window-maximized="0"
     inkscape:window-y="427"
     inkscape:window-x="537"
     inkscape:window-height="985"
     inkscape:window-width="1381"
     inkscape:bbox-nodes="true"
     inkscape:snap-bbox="true"
     units="px"
     showgrid="false"
     inkscape:current-layer="layer1"
     inkscape:document-units="px"
     inkscape:cy="52.094669"
     inkscape:cx="53.150348"
     inkscape:zoom="1"
     inkscape:pageshadow="2"
     inkscape:pageopacity="0.0"
     borderopacity="1.0"
     bordercolor="#666666"
     pagecolor="#ffffff"
     id="base"
     inkscape:object-nodes="true"
     inkscape:snap-smooth-nodes="true"
     inkscape:object-paths="true"
     inkscape:snap-nodes="true">
    <inkscape:grid
       id="grid4147"
       type="xygrid" />
  </sodipodi:namedview>
  <defs
     id="defs4">
    <linearGradient
       inkscape:collect="always"
       id="linearGradient4459">
      <stop
         style="stop-color:#000000;stop-opacity:1;"
         offset="0"
         id="stop4461" />
      <stop
         style="stop-color:#000000;stop-opacity:0;"
         offset="1"
         id="stop4463" />
    </linearGradient>
    <linearGradient
       inkscape:collect="always"
       xlink:href="#linearGradient4459"
       id="linearGradient4475"
       x1="60.000046"
       y1="982.36224"
       x2="115"
       y2="1037.3622"
       gradientUnits="userSpaceOnUse" />
    <linearGradient
       inkscape:collect="always"
       xlink:href="#linearGradient4459"
       id="linearGradient4465"
       x1="46"
       y1="63"
       x2="60.125"
       y2="77.125"
       gradientUnits="userSpaceOnUse"
       gradientTransform="translate(-1,946.36223)" />
  </defs>
  <metadata
     id="metadata7">
    <rdf:RDF>
      <cc:Work
         rdf:about="">
        <dc:format>image/svg+xml</dc:format>
        <dc:type
           rdf:resource="http://purl.org/dc/dcmitype/StillImage" />
        <dc:title />
      </cc:Work>
    </rdf:RDF>
  </metadata>
  <g
     transform="translate(0,-952.36223)"
     id="layer1"
     inkscape:groupmode="layer"
     inkscape:label="Layer 1">
    <rect
       y="952.36224"
       x="-100"
       height="100"
       width="100"
       id="rect4151"
       style="opacity:1;fill:#1d99f3;fill-opacity:1;stroke:none;stroke-width:0.5;stroke-linecap:butt;stroke-linejoin:round;stroke-miterlimit:4;stroke-dasharray:none;stroke-opacity:1"
       transform="scale(-1,1)" />
    <path
       sodipodi:nodetypes="ccsssc"
       inkscape:connector-curvature="0"
       id="path4245-8"
       d="m 22,986.36223 0,20.99997 c -4,2 -3,-3 -4,-5 -1,-2 -3,-6.2195 -3,-11.99997 0,-3 0,-4 2,-5 2,-1 3,2 5,1 z"
       style="fill:#eff0f1;fill-opacity:1;fill-rule:evenodd;stroke:none;stroke-width:1px;stroke-linecap:butt;stroke-linejoin:miter;stroke-opacity:1" />
    <path
       style="opacity:0.2;fill:url(#linearGradient4475);fill-opacity:1;fill-rule:evenodd;stroke:none;stroke-width:1px;stroke-linecap:butt;stroke-linejoin:miter;stroke-opacity:1"
       d="m 70,968.36225 30,29.99996 0,53.99999 -40,0 z"
       id="path4467"
       inkscape:connector-curvature="0"
       sodipodi:nodetypes="ccccc" />
    <path
       style="fill:#eff0f1;fill-opacity:1;fill-rule:evenodd;stroke:none;stroke-width:1px;stroke-linecap:butt;stroke-linejoin:miter;stroke-opacity:1"
       d="m 71,1052.3622 c -7,-10 -8,-20 -8,-20 l -26,0 c 0,0 -1,10 -8,20 z"
       id="path4596"
       inkscape:connector-curvature="0"
       sodipodi:nodetypes="ccccc" />
    <path
       sodipodi:nodetypes="ccsssc"
       inkscape:connector-curvature="0"
       id="path4245"
       d="m 78,986.36223 0,20.99997 c 4,2 3,-3 4,-5 1,-2 3,-6.2195 3,-11.99997 0,-3 0,-4 -2,-5 -2,-1 -3,2 -5,1 z"
       style="fill:#eff0f1;fill-opacity:1;fill-rule:evenodd;stroke:none;stroke-width:1px;stroke-linecap:butt;stroke-linejoin:miter;stroke-opacity:1" />
    <path
       sodipodi:nodetypes="szsssssszs"
       inkscape:connector-curvature="0"
       id="path4164"
       d="m 50,960.36223 c 6,0 17,5.14065 20.5,8.64065 3.5,3.5 8.5,8.60938 8.5,24.54685 0,8.90627 -0.106444,19.03357 -4.875,24.71087 -5.125,6.1016 -5.625,10.6016 -9.125,13.1016 -7,5 -23,5 -30,0 -3.5,-2.5 -4,-6 -9.125,-13.1016 C 21.536254,1012.2485 21,1002.456 21,993.54973 c 0,-15.93747 4.705914,-21.1875 8.5,-24.54685 3.794086,-3.35935 14.5,-8.64065 20.5,-8.64065 z"
       style="fill:#eff0f1;fill-rule:evenodd;stroke:none;stroke-width:1px;stroke-linecap:butt;stroke-linejoin:miter;stroke-opacity:1" />
    <path
       style="color:#000000;font-style:normal;font-variant:normal;font-weight:normal;font-stretch:normal;font-size:medium;line-height:normal;font-family:sans-serif;text-indent:0;text-align:start;text-decoration:none;text-decoration-line:none;text-decoration-style:solid;text-decoration-color:#000000;letter-spacing:normal;word-spacing:normal;text-transform:none;direction:ltr;block-progression:tb;writing-mode:lr-tb;baseline-shift:baseline;text-anchor:start;white-space:normal;clip-rule:nonzero;display:inline;overflow:visible;visibility:visible;opacity:1;isolation:auto;mix-blend-mode:normal;color-interpolation:sRGB;color-interpolation-filters:linearRGB;solid-color:#000000;solid-opacity:1;fill:#1d99f3;fill-opacity:1;fill-rule:evenodd;stroke:none;stroke-width:1px;stroke-linecap:round;stroke-linejoin:round;stroke-miterlimit:4;stroke-dasharray:none;stroke-dashoffset:0;stroke-opacity:1;color-rendering:auto;image-rendering:auto;shape-rendering:auto;text-rendering:auto;enable-background:accumulate"
       d="m 41.972656,1017.8613 a 0.50005,0.50005 0 0 0 -0.09375,0.9864 c 0,0 4.037761,1.0136 8.121094,1.0136 4.083333,0 8.121094,-1.0136 8.121094,-1.0136 a 0.50022833,0.50022833 0 1 0 -0.242188,-0.9707 c 0,0 -3.962239,0.9843 -7.878906,0.9843 -3.916667,0 -7.878906,-0.9843 -7.878906,-0.9843 a 0.50005,0.50005 0 0 0 -0.148438,-0.016 z"
       id="path4282"
       inkscape:connector-curvature="0" />
    <path
       style="fill:#1d99f3;fill-opacity:1;fill-rule:evenodd;stroke:none;stroke-width:1px;stroke-linecap:butt;stroke-linejoin:miter;stroke-opacity:1"
       d="m 50,56 -7,0.875 c -2,0 -5,2 -6,3 -1,1 -2,4 -1,5 1,1 3,1 7,0 4,-1 3,0 7,0 4,0 3,-1 7,0 4,1 6,1 7,0 1,-1 0,-4 -1,-5 -1,-1 -4,-3 -6,-3 z"
       transform="translate(0,952.36223)"
       id="path4261"
       inkscape:connector-curvature="0"
       sodipodi:nodetypes="ccssssssscc" />
    <path
       style="opacity:0.1;fill:url(#linearGradient4465);fill-opacity:1;fill-rule:evenodd;stroke:none;stroke-width:1px;stroke-linecap:butt;stroke-linejoin:miter;stroke-opacity:1"
       d="m 50.604297,992.76554 -6.998047,17.59666 18.1875,18.1875 13.001953,-11.5908 z"
       id="path4407"
       inkscape:connector-curvature="0"
       sodipodi:nodetypes="ccccc" />
    <path
       sodipodi:nodetypes="ssszszsss"
       inkscape:connector-curvature="0"
       id="path4188"
       d="m 50,993.3622 c 0.75,0 3.183698,1.07449 4,2.00003 0.816302,0.92554 0.01521,1.70212 1,3.99997 1.500001,3.5 4,8 2.25,10.125 -1.75,2.125 -3.75,2.875 -7.25,2.875 -3.5,0 -5.5,-0.75 -7.25,-2.875 -1.75,-2.125 0.749999,-6.625 2.25,-10.125 0.984793,-2.29785 0.183698,-3.07443 1,-3.99997 0.816302,-0.92554 3.25,-2.00003 4,-2.00003 z"
       style="fill:#2ecc71;fill-rule:evenodd;stroke:none;stroke-width:1px;stroke-linecap:butt;stroke-linejoin:miter;stroke-opacity:1" />
    <path
       style="opacity:1;fill:#2ecc71;fill-opacity:1;stroke:none;stroke-width:2;stroke-linecap:round;stroke-linejoin:round;stroke-miterlimit:4;stroke-dasharray:none;stroke-opacity:1"
       d="m 62.5,987.36223 a 8.5,8.5 0 0 0 -8.5,8.5 8.5,8.5 0 0 0 8.5,8.49997 8.5,8.5 0 0 0 8.5,-8.49997 8.5,8.5 0 0 0 -8.5,-8.5 z m 0,1 a 7.4999852,7.4999852 0 0 1 7.5,7.5 7.4999852,7.4999852 0 0 1 -7.5,7.49997 7.4999852,7.4999852 0 0 1 -7.5,-7.49997 7.4999852,7.4999852 0 0 1 7.5,-7.5 z"
       id="path4174"
       inkscape:connector-curvature="0" />
    <path
       style="opacity:1;fill:#2ecc71;fill-opacity:1;stroke:none;stroke-width:2;stroke-linecap:round;stroke-linejoin:round;stroke-miterlimit:4;stroke-dasharray:none;stroke-opacity:1"
       d="m 37.5,987.36223 a 8.5,8.5 0 0 0 -8.5,8.5 8.5,8.5 0 0 0 8.5,8.49997 8.5,8.5 0 0 0 8.5,-8.49997 8.5,8.5 0 0 0 -8.5,-8.5 z m 0,1 a 7.4999852,7.4999852 0 0 1 7.5,7.5 7.4999852,7.4999852 0 0 1 -7.5,7.49997 7.4999852,7.4999852 0 0 1 -7.5,-7.49997 7.4999852,7.4999852 0 0 1 7.5,-7.5 z"
       id="path4174-2"
       inkscape:connector-curvature="0" />
    <path
       style="color:#000000;font-style:normal;font-variant:normal;font-weight:normal;font-stretch:normal;font-size:medium;line-height:normal;font-family:sans-serif;text-indent:0;text-align:start;text-decoration:none;text-decoration-line:none;text-decoration-style:solid;text-decoration-color:#000000;letter-spacing:normal;word-spacing:normal;text-transform:none;direction:ltr;block-progression:tb;writing-mode:lr-tb;baseline-shift:baseline;text-anchor:start;white-space:normal;clip-rule:nonzero;display:inline;overflow:visible;visibility:visible;opacity:1;isolation:auto;mix-blend-mode:normal;color-interpolation:sRGB;color-interpolation-filters:linearRGB;solid-color:#000000;solid-opacity:1;fill:#2ecc71;fill-opacity:1;fill-rule:evenodd;stroke:none;stroke-width:1px;stroke-linecap:round;stroke-linejoin:miter;stroke-miterlimit:4;stroke-dasharray:none;stroke-dashoffset:0;stroke-opacity:1;color-rendering:auto;image-rendering:auto;shape-rendering:auto;text-rendering:auto;enable-background:accumulate"
       d="m 50,992.86133 c -1.611111,0 -2.736318,0.55038 -3.4375,1.11133 -0.701182,0.56094 -1.009766,1.16601 -1.009766,1.16601 a 0.50005948,0.50005948 0 1 0 0.894532,0.44727 c 0,0 0.191416,-0.39493 0.740234,-0.83399 0.548818,-0.43905 1.423611,-0.89062 2.8125,-0.89062 1.388889,0 2.263682,0.45157 2.8125,0.89062 0.548818,0.43906 0.740234,0.83399 0.740234,0.83399 a 0.50005948,0.50005948 0 1 0 0.894532,-0.44727 c 0,0 -0.308584,-0.60507 -1.009766,-1.16601 -0.701182,-0.56095 -1.826389,-1.11133 -3.4375,-1.11133 z"
       id="path4194"
       inkscape:connector-curvature="0" />
    <path
       style="color:#000000;font-style:normal;font-variant:normal;font-weight:normal;font-stretch:normal;font-size:medium;line-height:normal;font-family:sans-serif;text-indent:0;text-align:start;text-decoration:none;text-decoration-line:none;text-decoration-style:solid;text-decoration-color:#000000;letter-spacing:normal;word-spacing:normal;text-transform:none;direction:ltr;block-progression:tb;writing-mode:lr-tb;baseline-shift:baseline;text-anchor:start;white-space:normal;clip-rule:nonzero;display:inline;overflow:visible;visibility:visible;opacity:1;isolation:auto;mix-blend-mode:normal;color-interpolation:sRGB;color-interpolation-filters:linearRGB;solid-color:#000000;solid-opacity:1;fill:#2ecc71;fill-opacity:1;fill-rule:evenodd;stroke:none;stroke-width:1px;stroke-linecap:round;stroke-linejoin:miter;stroke-miterlimit:4;stroke-dasharray:none;stroke-dashoffset:0;stroke-opacity:1;color-rendering:auto;image-rendering:auto;shape-rendering:auto;text-rendering:auto;enable-background:accumulate"
       d="m 79.976562,983.85742 c -0.181967,0.01 -0.344347,0.11728 -0.423828,0.28125 0,0 -3.024101,3.98699 -4.90625,5.86914 -1.916013,1.91602 -2.800742,4.35599 -2.974609,4.85352 l -0.671875,0 c -0.676161,-0.01 -0.676161,1.00956 0,1 l 1.361328,0 0.113281,-0.3418 c 0,0 0.996758,-2.92254 2.878907,-4.80469 2.117851,-2.11785 5.09375,-6.1289 5.09375,-6.1289 0.176915,-0.34312 -0.08519,-0.74879 -0.470704,-0.72852 z"
       id="path4196"
       inkscape:connector-curvature="0"
       sodipodi:nodetypes="ccscccccscc" />
    <path
       style="color:#000000;font-style:normal;font-variant:normal;font-weight:normal;font-stretch:normal;font-size:medium;line-height:normal;font-family:sans-serif;text-indent:0;text-align:start;text-decoration:none;text-decoration-line:none;text-decoration-style:solid;text-decoration-color:#000000;letter-spacing:normal;word-spacing:normal;text-transform:none;direction:ltr;block-progression:tb;writing-mode:lr-tb;baseline-shift:baseline;text-anchor:start;white-space:normal;clip-rule:nonzero;display:inline;overflow:visible;visibility:visible;opacity:1;isolation:auto;mix-blend-mode:normal;color-interpolation:sRGB;color-interpolation-filters:linearRGB;solid-color:#000000;solid-opacity:1;fill:#2ecc71;fill-opacity:1;fill-rule:evenodd;stroke:none;stroke-width:1px;stroke-linecap:round;stroke-linejoin:miter;stroke-miterlimit:4;stroke-dasharray:none;stroke-dashoffset:0;stroke-opacity:1;color-rendering:auto;image-rendering:auto;shape-rendering:auto;text-rendering:auto;enable-background:accumulate"
       d="m 20.019183,983.85742 c 0.181967,0.01 0.344347,0.11728 0.423828,0.28125 0,0 3.024101,3.98699 4.90625,5.86914 1.916013,1.91602 2.800742,4.35599 2.974609,4.85352 l 0.671875,0 c 0.676161,-0.01 0.676161,1.00956 0,1 l -1.361328,0 -0.113281,-0.3418 c 0,0 -0.996758,-2.92254 -2.878907,-4.80469 -2.117851,-2.11785 -5.09375,-6.1289 -5.09375,-6.1289 -0.176915,-0.34312 0.08519,-0.74879 0.470704,-0.72852 z"
       id="path4196-8"
       inkscape:connector-curvature="0"
       sodipodi:nodetypes="ccscccccscc" />
    <path
       sodipodi:nodetypes="sssss"
       inkscape:connector-curvature="0"
       id="path4169"
       d="m 33.812324,993.27058 c -0.391224,1.63578 0.496315,2.40098 2.11835,2.79557 1.622028,0.39453 3.975819,0.26906 4.367068,-1.3667 0.391248,-1.63582 -0.639342,-2.81964 -2.261383,-3.21421 -1.622041,-0.39457 -3.832786,0.14951 -4.224035,1.78534 z"
       style="opacity:1;fill:#1d99f3;fill-opacity:1;stroke:none;stroke-width:0.5;stroke-linecap:butt;stroke-linejoin:round;stroke-miterlimit:4;stroke-dasharray:none;stroke-opacity:1" />
    <path
       sodipodi:nodetypes="sssss"
       inkscape:connector-curvature="0"
       id="path4169-0"
       d="m 66.187676,993.27058 c 0.391224,1.63578 -0.496315,2.40098 -2.11835,2.79557 -1.622028,0.39453 -3.975819,0.26906 -4.367068,-1.3667 -0.391248,-1.63582 0.639342,-2.81964 2.261383,-3.21421 1.622041,-0.39457 3.832786,0.14951 4.224035,1.78534 z"
       style="opacity:1;fill:#1d99f3;fill-opacity:1;stroke:none;stroke-width:0.5;stroke-linecap:butt;stroke-linejoin:round;stroke-miterlimit:4;stroke-dasharray:none;stroke-opacity:1" />
  </g>
</svg>
