<?xml version="1.0" encoding="UTF-8" standalone="no"?>
<!-- Created with Inkscape (http://www.inkscape.org/) -->

<svg
   xmlns:dc="http://purl.org/dc/elements/1.1/"
   xmlns:cc="http://creativecommons.org/ns#"
   xmlns:rdf="http://www.w3.org/1999/02/22-rdf-syntax-ns#"
   xmlns:svg="http://www.w3.org/2000/svg"
   xmlns="http://www.w3.org/2000/svg"
   xmlns:xlink="http://www.w3.org/1999/xlink"
   xmlns:sodipodi="http://sodipodi.sourceforge.net/DTD/sodipodi-0.dtd"
   xmlns:inkscape="http://www.inkscape.org/namespaces/inkscape"
   inkscape:version="0.91 r13725"
   version="1.1"
   id="svg2"
   viewBox="0 0 99.999997 99.999997"
   height="100"
   width="100"
   sodipodi:docname="hero-mowgli-jungle-book.svg">
  <sodipodi:namedview
     inkscape:window-maximized="0"
     inkscape:window-y="214"
     inkscape:window-x="570"
     inkscape:window-height="985"
     inkscape:window-width="1381"
     inkscape:bbox-nodes="true"
     inkscape:snap-bbox="false"
     units="px"
     showgrid="false"
     inkscape:current-layer="layer1"
     inkscape:document-units="px"
     inkscape:cy="48.582915"
     inkscape:cx="66.062271"
     inkscape:zoom="1"
     inkscape:pageshadow="2"
     inkscape:pageopacity="0.0"
     borderopacity="1.0"
     bordercolor="#666666"
     pagecolor="#ffffff"
     id="base"
     inkscape:object-nodes="false"
     inkscape:snap-smooth-nodes="false"
     inkscape:object-paths="true"
     inkscape:snap-nodes="false"
     inkscape:bbox-paths="true">
    <inkscape:grid
       id="grid4147"
       type="xygrid" />
  </sodipodi:namedview>
  <defs
     id="defs4">
    <linearGradient
       inkscape:collect="always"
       id="linearGradient4459">
      <stop
         style="stop-color:#000000;stop-opacity:1;"
         offset="0"
         id="stop4461" />
      <stop
         style="stop-color:#000000;stop-opacity:0;"
         offset="1"
         id="stop4463" />
    </linearGradient>
    <linearGradient
       inkscape:collect="always"
       xlink:href="#linearGradient4459"
       id="linearGradient4465"
       x1="47"
       y1="64"
       x2="60.125"
       y2="77.125"
       gradientUnits="userSpaceOnUse"
       gradientTransform="translate(1,949.36223)" />
    <linearGradient
       inkscape:collect="always"
       xlink:href="#linearGradient4459"
       id="linearGradient4475"
       x1="60.000046"
       y1="982.36224"
       x2="115"
       y2="1037.3622"
       gradientUnits="userSpaceOnUse" />
  </defs>
  <metadata
     id="metadata7">
    <rdf:RDF>
      <cc:Work
         rdf:about="">
        <dc:format>image/svg+xml</dc:format>
        <dc:type
           rdf:resource="http://purl.org/dc/dcmitype/StillImage" />
        <dc:title />
      </cc:Work>
    </rdf:RDF>
  </metadata>
  <g
     transform="translate(0,-952.36223)"
     id="layer1"
     inkscape:groupmode="layer"
     inkscape:label="Layer 1">
    <rect
       y="952.36224"
       x="-100"
       height="100"
       width="100"
       id="rect4151"
       style="opacity:1;fill:#1d99f3;fill-opacity:1;stroke:none;stroke-width:0.5;stroke-linecap:butt;stroke-linejoin:round;stroke-miterlimit:4;stroke-dasharray:none;stroke-opacity:1"
       transform="scale(-1,1)" />
    <path
       style="opacity:0.2;fill:url(#linearGradient4475);fill-opacity:1;fill-rule:evenodd;stroke:none;stroke-width:1px;stroke-linecap:butt;stroke-linejoin:miter;stroke-opacity:1"
       d="m 77,954.56225 23,22.99996 0,74.79999 -40,0 z"
       id="path4467"
       inkscape:connector-curvature="0"
       sodipodi:nodetypes="ccccc" />
    <path
       style="fill:#1d99f3;fill-opacity:1;fill-rule:evenodd;stroke:none;stroke-width:1px;stroke-linecap:butt;stroke-linejoin:miter;stroke-opacity:1"
       d="m 50,952.36223 c -35,0 -37,25 -35,49.99997 2.033115,25.4139 25,45 20,50 l 30,0 c -5,-5 17.966885,-24.5861 20,-50 2,-24.99997 0,-49.99997 -35,-49.99997 z"
       id="path4232"
       inkscape:connector-curvature="0"
       sodipodi:nodetypes="zsccsz" />
    <path
       sodipodi:nodetypes="zsszzzssz"
       inkscape:connector-curvature="0"
       id="path4164"
       d="m 50,962.36223 c 20.229275,-0.79366 29,11 28,21 -0.901044,9.01044 3.646927,9.47135 1,25.18747 -3.000003,17.8125 -5,19.8125 -10,24.8125 -5,5 -14.666667,6.625 -19,6.625 -4.333333,0 -14,-1.625 -19,-6.625 -5,-5 -6.999997,-7 -10,-24.8125 -2.646927,-15.71611 1.901044,-16.17703 1,-25.18747 -1,-10 7.770725,-20.20634 28,-21 z"
       style="fill:#eff0f1;fill-rule:evenodd;stroke:none;stroke-width:1px;stroke-linecap:butt;stroke-linejoin:miter;stroke-opacity:1" />
    <path
       style="fill:#1d99f3;fill-opacity:1;fill-rule:evenodd;stroke:none;stroke-width:1px;stroke-linecap:butt;stroke-linejoin:miter;stroke-opacity:1"
       d="m 37,1019.5748 c 0.625,1.1968 5.152797,6.7702 13,6.7874 7.847203,0.017 12.375,-5.5905 13,-6.7874 0,0 -10.5,1.2047 -13,1.2047 -2.5,0 -13,-1.2047 -13,-1.2047 z"
       id="path4885"
       inkscape:connector-curvature="0"
       sodipodi:nodetypes="czcsc" />
    <path
       sodipodi:nodetypes="sssss"
       inkscape:connector-curvature="0"
       id="path4169"
       d="m 33.030131,996.59502 c -0.333035,1.64418 0.422495,2.4133 1.803275,2.80991 1.380775,0.3966 4.09318,0.97917 4.426235,-0.665 0.333057,-1.6442 -1.252956,-3.54279 -2.633741,-3.93939 -1.380785,-0.3966 -3.262713,0.15028 -3.595769,1.79448 z"
       style="opacity:1;fill:#1d99f3;fill-opacity:1;stroke:none;stroke-width:0.5;stroke-linecap:butt;stroke-linejoin:round;stroke-miterlimit:4;stroke-dasharray:none;stroke-opacity:1" />
    <path
       sodipodi:nodetypes="sssss"
       inkscape:connector-curvature="0"
       id="path4169-0"
       d="m 66.969869,996.59503 c 0.333035,1.64417 -0.422495,2.41329 -1.803275,2.8099 -1.380775,0.3966 -4.09318,0.97917 -4.426235,-0.665 -0.333057,-1.6442 1.252956,-3.54279 2.633741,-3.93939 1.380785,-0.3966 3.262713,0.15028 3.595769,1.79449 z"
       style="opacity:1;fill:#1d99f3;fill-opacity:1;stroke:none;stroke-width:0.5;stroke-linecap:butt;stroke-linejoin:round;stroke-miterlimit:4;stroke-dasharray:none;stroke-opacity:1" />
    <path
       style="fill:#eff0f1;fill-opacity:1;fill-rule:evenodd;stroke:none;stroke-width:1px;stroke-linecap:butt;stroke-linejoin:miter;stroke-opacity:1"
       d="m 46,1021.3772 c 0.247799,0.5127 0.812511,1.8916 1.534989,2.141 0.722478,0.2494 4.237927,0.2274 4.954881,-0.025 0.716953,-0.2522 1.273379,-1.6257 1.51013,-2.1162 0,0 -2.863637,0.2538 -4,0.2538 -1.136363,0 -4,-0.2538 -4,-0.2538 z"
       id="path4885-4"
       inkscape:connector-curvature="0"
       sodipodi:nodetypes="csscsc" />
    <path
       style="fill:#eff0f1;fill-opacity:1;fill-rule:evenodd;stroke:none;stroke-width:1px;stroke-linecap:butt;stroke-linejoin:miter;stroke-opacity:1"
       d="m 19,1003.3622 c 0,0 0,-11.99997 -5,-9.99997 -5,2 1.272396,10.78727 2,11.99997 3,5 3,-2 3,-2 z"
       id="path4176"
       inkscape:connector-curvature="0"
       sodipodi:nodetypes="cssc" />
    <path
       style="fill:#1d99f3;fill-opacity:1;fill-rule:evenodd;stroke:none;stroke-width:1px;stroke-linecap:butt;stroke-linejoin:miter;stroke-opacity:1"
       d="m 37.277027,1019.5589 c 0,0 1.281631,-1.6394 -0.579972,-0.8948 -1.861603,0.7447 -0.447679,1.5227 -0.176777,1.9742 1.116962,1.8616 0.756749,-1.0794 0.756749,-1.0794 z"
       id="path4176-6"
       inkscape:connector-curvature="0"
       sodipodi:nodetypes="cssc" />
    <path
       style="fill:#1d99f3;fill-opacity:1;fill-rule:evenodd;stroke:none;stroke-width:1px;stroke-linecap:butt;stroke-linejoin:miter;stroke-opacity:1"
       d="m 62.900112,1019.5589 c 0,0 -1.281631,-1.6394 0.579972,-0.8948 1.861603,0.7447 0.447679,1.5227 0.176777,1.9742 -1.116962,1.8616 -0.756749,-1.0794 -0.756749,-1.0794 z"
       id="path4176-6-6"
       inkscape:connector-curvature="0"
       sodipodi:nodetypes="cssc" />
    <path
       style="opacity:0.1;fill:url(#linearGradient4465);fill-opacity:1;fill-rule:evenodd;stroke:none;stroke-width:1px;stroke-linecap:butt;stroke-linejoin:miter;stroke-opacity:1"
       d="m 50.404297,1004.3622 -2.598047,9.5003 18.1875,18.1875 8.601953,-3.4944 z"
       id="path4407"
       inkscape:connector-curvature="0"
       sodipodi:nodetypes="ccccc" />
    <path
       sodipodi:nodetypes="sssssss"
       inkscape:connector-curvature="0"
       id="path4188"
       d="m 52,1004.3622 c 0.851469,2.5544 3.5,6.25 3,7.375 -0.5,1.125 -2,2.625 -5,2.625 -3,0 -4.5,-1.5 -5,-2.625 -0.5,-1.125 2.148531,-4.8206 3,-7.375 0.5,-1.5 1.25,-2.25 2,-2.25 0.75,0 1.5,0.75 2,2.25 z"
       style="fill:#2ecc71;fill-rule:evenodd;stroke:none;stroke-width:1px;stroke-linecap:butt;stroke-linejoin:miter;stroke-opacity:1" />
    <path
       style="fill:#1d99f3;fill-rule:evenodd;stroke:none;stroke-width:1px;stroke-linecap:butt;stroke-linejoin:miter;stroke-opacity:1;fill-opacity:1"
       d="m 55.154329,961.67578 c -0.441941,17.85445 -20.417708,25.10229 -20.417708,25.10229 0,0 -5.391689,-16.97056 -2.916816,-20.85965 2.474874,-3.88908 12.639534,-4.5078 12.639534,-4.5078 z"
       id="path4157"
       inkscape:connector-curvature="0" />
    <path
       style="fill:#1d99f3;fill-rule:evenodd;stroke:none;stroke-width:1px;stroke-linecap:butt;stroke-linejoin:miter;stroke-opacity:1;fill-opacity:1"
       d="m 53.916893,961.94095 c 2.474873,8.75045 0.707106,13.6118 0.707106,13.6118 0,0 5.833631,-2.56326 6.098796,-13.16986 0.265165,-10.6066 -6.805902,-0.44194 -6.805902,-0.44194 z"
       id="path4159"
       inkscape:connector-curvature="0" />
    <path
       style="fill:#1d99f3;fill-opacity:1;fill-rule:evenodd;stroke:none;stroke-width:1px;stroke-linecap:butt;stroke-linejoin:miter;stroke-opacity:1"
       d="m 59.780854,961.67578 c -0.53033,12.02082 12.374368,18.47317 12.374368,18.47317 0,0 -0.795495,-6.98268 0.353554,-11.66726 1.149048,-4.68459 -12.727922,-6.80591 -12.727922,-6.80591 z"
       id="path4161"
       inkscape:connector-curvature="0" />
    <path
       style="fill:#1d99f3;fill-rule:evenodd;stroke:none;stroke-width:1px;stroke-linecap:butt;stroke-linejoin:miter;stroke-opacity:1;fill-opacity:1"
       d="m 30.670757,961.85256 c 3.005204,11.31371 0.707107,16.08668 -1.06066,20.85965 -1.767767,4.77297 -0.353554,8.04334 -0.353554,8.04334 0,0 -3.447145,-0.79549 -3.270369,-7.07107 0.176777,-6.27557 -4.065864,-10.96015 -4.065864,-10.96015 z"
       id="path4163"
       inkscape:connector-curvature="0" />
    <path
       style="fill:#1d99f3;fill-opacity:1;fill-rule:evenodd;stroke:none;stroke-width:1px;stroke-linecap:butt;stroke-linejoin:miter;stroke-opacity:1"
       d="m 72.445514,966.62553 c 4.684582,11.84404 0.353553,29.6101 0.265165,35.17857 -0.08839,5.5685 3.18198,8.6621 3.18198,8.6621 0,0 -0.362074,-1.7084 0.707107,-3.8007 0.715627,1.3549 0.353554,6.8059 0.353554,6.8059 0,0 0.935962,-1.5362 0.883883,-3.9775 0.213086,1.4919 1.016466,2.3864 1.016466,2.3864 0,0 2.872621,-6.4523 2.253903,-14.23046 -0.618719,-7.77817 -4.154252,-10.07627 -3.889087,-17.67767 0.265165,-7.6014 1.414213,-12.02081 1.414213,-12.02081 l -6.540738,-1.23744 z"
       id="path4165"
       inkscape:connector-curvature="0"
       sodipodi:nodetypes="cscccccssccc" />
    <path
       style="fill:#1d99f3;fill-opacity:1;fill-rule:evenodd;stroke:none;stroke-width:1px;stroke-linecap:butt;stroke-linejoin:miter;stroke-opacity:1"
       d="m 26.841324,966.62553 c -4.684582,11.84404 -0.353553,29.6101 -0.265165,35.17857 0.08839,5.5685 -2.05698,8.1621 -2.05698,8.1621 0,0 -0.762926,-1.2084 -1.832107,-3.3007 0.721873,2.6049 -0.541054,6.6809 -0.541054,6.6809 0,0 -0.06096,-1.9737 -0.696383,-3.8525 -0.213086,1.4919 -1.016466,2.3864 -1.016466,2.3864 0,0 -2.872621,-6.4523 -2.253903,-14.23046 0.618719,-7.77817 4.154252,-10.07627 3.889087,-17.67767 -0.265165,-7.6014 -1.414213,-12.02081 -1.414213,-12.02081 l 6.540738,-1.23744 z"
       id="path4165-5"
       inkscape:connector-curvature="0"
       sodipodi:nodetypes="cscccccssccc" />
    <path
       style="fill:#1d99f3;fill-rule:evenodd;stroke:none;stroke-width:1px;stroke-linecap:butt;stroke-linejoin:miter;stroke-opacity:1;fill-opacity:1"
       d="m 72.625,958.86223 c 10.125,8.25 15.625,6.375 15.625,6.375 0,0 -0.125,12.375 -5.875,11.75 -5.75,-0.625 -9.75,-18.125 -9.75,-18.125 z"
       id="path4182"
       inkscape:connector-curvature="0" />
    <path
       style="fill:#1d99f3;fill-opacity:1;fill-rule:evenodd;stroke:none;stroke-width:1px;stroke-linecap:butt;stroke-linejoin:miter;stroke-opacity:1"
       d="m 77.25,965.98723 c 5.125,10.125 17.125,21.875 17.5,30.75 0.375,8.87497 -4.5,15.24997 -4.5,15.24997 0,0 -5.625,-8.875 -10.125,-16.12497 -4.5,-7.25 -2.875,-29.875 -2.875,-29.875 z"
       id="path4184"
       inkscape:connector-curvature="0"
       sodipodi:nodetypes="cscsc" />
    <path
       style="fill:#1d99f3;fill-rule:evenodd;stroke:none;stroke-width:1px;stroke-linecap:butt;stroke-linejoin:miter;stroke-opacity:1;fill-opacity:1"
       d="m 84.75,995.11223 c -0.375,14.49997 3,23.37497 3,23.37497 0,0 -2.625,-1.125 -6.125,0.875 -3.5,2 -2.75,0.375 -2.75,0.375 z"
       id="path4186"
       inkscape:connector-curvature="0" />
    <path
       style="fill:#1d99f3;fill-rule:evenodd;stroke:none;stroke-width:1px;stroke-linecap:butt;stroke-linejoin:miter;stroke-opacity:1;fill-opacity:1"
       d="m 80.625,1017.6122 c -0.75,8.25 4.125,16.25 4.125,16.25 0,0 -7.25,3.375 -9.25,-0.375 -2,-3.75 -0.625,-4.75 -0.625,-4.75 z"
       id="path4189"
       inkscape:connector-curvature="0" />
    <path
       style="fill:#1d99f3;fill-rule:evenodd;stroke:none;stroke-width:1px;stroke-linecap:butt;stroke-linejoin:miter;stroke-opacity:1;fill-opacity:1"
       d="m 76,1026.4872 c -0.625,14.125 0.5,24.125 0.5,24.125 0,0 -3.5,0 -5.75,-1.75 -2.25,-1.75 -4.375,-5.875 -4.375,-5.875 z"
       id="path4191"
       inkscape:connector-curvature="0" />
    <path
       style="fill:#1d99f3;fill-rule:evenodd;stroke:none;stroke-width:1px;stroke-linecap:butt;stroke-linejoin:miter;stroke-opacity:1;fill-opacity:1"
       d="M 67.25 87.5 L 59 92.5 L 65.720703 100 L 68.304688 100 C 68.849539 97.608659 69.233794 93.292677 67.25 87.5 z "
       transform="translate(0,952.36223)"
       id="path4193" />
    <path
       style="fill:#eff0f1;fill-opacity:1;fill-rule:evenodd;stroke:none;stroke-width:1px;stroke-linecap:butt;stroke-linejoin:miter;stroke-opacity:1"
       d="m 81,1003.3622 c 0,0 0,-11.99997 5,-9.99997 4.999999,2 -1.272396,10.78727 -2,11.99997 -3,5 -3,-2 -3,-2 z"
       id="path4176-5"
       inkscape:connector-curvature="0"
       sodipodi:nodetypes="cssc" />
    <path
       style="fill:#1d99f3;fill-rule:evenodd;stroke:none;stroke-width:1px;stroke-linecap:butt;stroke-linejoin:miter;stroke-opacity:1;fill-opacity:1"
       d="m 65.3125,958.42473 c 5.09375,0.15625 11.71875,-3.8125 11.71875,-3.8125 0,0 3.125,7.21875 0.625,8.78125 -2.5,1.5625 -9,-2.0625 -9,-2.0625 z"
       id="path4195"
       inkscape:connector-curvature="0" />
    <path
       style="fill:#eff0f1;fill-opacity:1;fill-rule:evenodd;stroke:none;stroke-width:1px;stroke-linecap:butt;stroke-linejoin:miter;stroke-opacity:1"
       d="m 57,1021.0624 c 0,0 -1.356973,0.2149 -2,0.3226 0.128212,1.3631 1.287722,1.8941 2,-0.3226 z"
       id="path4885-4-6"
       inkscape:connector-curvature="0"
       sodipodi:nodetypes="ccc" />
    <path
       style="fill:#eff0f1;fill-opacity:1;fill-rule:evenodd;stroke:none;stroke-width:1px;stroke-linecap:butt;stroke-linejoin:miter;stroke-opacity:1"
       d="m 43,1021.0623 c 0,0 1.356973,0.2149 2,0.3226 -0.128212,1.3631 -1.287722,1.8941 -2,-0.3226 z"
       id="path4885-4-6-1"
       inkscape:connector-curvature="0"
       sodipodi:nodetypes="ccc" />
    <path
       style="fill:#eff0f1;fill-opacity:1;fill-rule:evenodd;stroke:none;stroke-width:1px;stroke-linecap:butt;stroke-linejoin:miter;stroke-opacity:1"
       d="m 68,1052.3622 c -5,-10 -7,-20 -7,-20 l -22,0 c 0,0 -2,10 -7,20 z"
       id="path4596"
       inkscape:connector-curvature="0"
       sodipodi:nodetypes="ccccc" />
    <g
       id="g4400"
       transform="matrix(1.0188831,0,0,1.0188831,-2.2826653,-19.868985)">
      <path
         style="opacity:1;fill:#2ecc71;fill-opacity:1;stroke:none;stroke-width:0.5;stroke-linecap:butt;stroke-linejoin:round;stroke-miterlimit:4;stroke-dasharray:none;stroke-opacity:1"
         d="m 50.27772,1049.4957 c -0.244483,0.2914 0.05817,2.1301 0.289852,2.5253 0.231679,0.3952 1.747013,0.2052 2.13526,-0.074 0.388238,-0.2795 0.437962,-1.9714 0.178043,-2.3718 -0.259918,-0.4004 -2.358681,-0.3704 -2.603155,-0.079 z"
         id="path4169-1"
         inkscape:connector-curvature="0"
         sodipodi:nodetypes="zzzzz" />
      <path
         style="opacity:1;fill:#2ecc71;fill-opacity:1;stroke:none;stroke-width:0.5;stroke-linecap:butt;stroke-linejoin:round;stroke-miterlimit:4;stroke-dasharray:none;stroke-opacity:1"
         d="m 53.379916,1049.5986 c -0.161391,0.3154 0.117114,1.737 0.333677,2.0971 0.216562,0.36 1.591791,0.7059 1.865435,0.3851 0.273655,-0.3211 0.05974,-2.3557 -0.179143,-2.7174 -0.238887,-0.3617 -1.85858,-0.08 -2.019966,0.2357 z"
         id="path4169-1-6"
         inkscape:connector-curvature="0"
         sodipodi:nodetypes="czzzzc" />
      <path
         style="opacity:1;fill:#2ecc71;fill-opacity:1;stroke:none;stroke-width:0.5;stroke-linecap:butt;stroke-linejoin:round;stroke-miterlimit:4;stroke-dasharray:none;stroke-opacity:1"
         d="m 55.950224,1049.2351 c -0.187573,0.3974 0.136113,2.1885 0.387808,2.642 0.251695,0.4536 1.743082,0.4256 2.061118,0.021 0.318049,-0.4045 0.176373,-2.504 -0.101269,-2.9597 -0.27764,-0.4557 -2.160091,-0.1009 -2.347657,0.2969 z"
         id="path4169-1-6-5"
         inkscape:connector-curvature="0"
         sodipodi:nodetypes="zzzzz" />
      <path
         style="opacity:1;fill:#2ecc71;fill-opacity:1;stroke:none;stroke-width:0.5;stroke-linecap:butt;stroke-linejoin:round;stroke-miterlimit:4;stroke-dasharray:none;stroke-opacity:1"
         d="m 58.830526,1048.7406 c -0.120865,0.4225 0.9256,2.8565 1.247294,3.2634 0.32171,0.4069 1.351456,-0.5806 1.599904,-1.0313 0.248478,-0.4506 -0.230724,-2.4996 -0.57838,-2.9044 -0.347653,-0.4048 -2.147992,0.2496 -2.268785,0.6725 z"
         id="path4169-1-6-5-1"
         inkscape:connector-curvature="0"
         sodipodi:nodetypes="czzzzc" />
      <path
         style="opacity:1;fill:#2ecc71;fill-opacity:1;stroke:none;stroke-width:0.5;stroke-linecap:butt;stroke-linejoin:round;stroke-miterlimit:4;stroke-dasharray:none;stroke-opacity:1"
         d="m 61.720802,1047.924 c -0.03261,0.3528 0.754273,1.5691 1.089154,1.8229 0.334843,0.2537 1.174148,-0.088 1.308969,-0.487 0.134719,-0.3998 -0.254047,-2.0579 -0.610245,-2.305 -0.356201,-0.247 -1.755191,0.6165 -1.787689,0.9696 z"
         id="path4169-1-6-9"
         inkscape:connector-curvature="0"
         sodipodi:nodetypes="czzzzc" />
      <path
         style="opacity:1;fill:#2ecc71;fill-opacity:1;stroke:none;stroke-width:0.5;stroke-linecap:butt;stroke-linejoin:round;stroke-miterlimit:4;stroke-dasharray:none;stroke-opacity:1"
         d="m 63.908302,1046.549 c -0.03261,0.3528 0.754273,1.5691 1.089154,1.8229 0.334843,0.2537 0.924148,0.2245 1.058969,-0.1745 0.134719,-0.3998 -0.566547,-2.1204 -0.922745,-2.3675 -0.356201,-0.247 -1.192691,0.3665 -1.225189,0.7196 z"
         id="path4169-1-6-9-2"
         inkscape:connector-curvature="0"
         sodipodi:nodetypes="czzzzc" />
      <path
         style="opacity:1;fill:#2ecc71;fill-opacity:1;stroke:none;stroke-width:0.5;stroke-linecap:butt;stroke-linejoin:round;stroke-miterlimit:4;stroke-dasharray:none;stroke-opacity:1"
         d="m 65.324618,1045.6417 c 0.09835,0.3403 1.274724,1.1857 1.679115,1.2999 0.40432,0.114 0.942357,-0.1281 0.922323,-0.5488 -0.02042,-0.4214 -1.301061,-1.7676 -1.722856,-1.8677 -0.421761,-0.1 -0.976783,0.7763 -0.878224,1.117 z"
         id="path4169-1-6-9-2-1"
         inkscape:connector-curvature="0"
         sodipodi:nodetypes="czzzzc" />
      <path
         style="opacity:1;fill:#2ecc71;fill-opacity:1;stroke:none;stroke-width:0.5;stroke-linecap:butt;stroke-linejoin:round;stroke-miterlimit:4;stroke-dasharray:none;stroke-opacity:1"
         d="m 49.707574,1049.5986 c 0.161391,0.3154 -0.117114,1.737 -0.333677,2.0971 -0.216562,0.36 -0.947703,0.5218 -1.221347,0.201 -0.273655,-0.3211 -0.703829,-2.1716 -0.464945,-2.5333 0.238887,-0.3617 1.85858,-0.3867 2.019966,-0.071 z"
         id="path4169-1-6-6"
         inkscape:connector-curvature="0"
         sodipodi:nodetypes="czzzzc" />
      <path
         style="opacity:1;fill:#2ecc71;fill-opacity:1;stroke:none;stroke-width:0.5;stroke-linecap:butt;stroke-linejoin:round;stroke-miterlimit:4;stroke-dasharray:none;stroke-opacity:1"
         d="m 47.137266,1049.2351 c 0.187573,0.3974 -0.136113,2.1885 -0.387808,2.642 -0.251695,0.4536 -1.405703,0.2722 -1.723739,-0.1324 -0.318049,-0.4045 -0.513752,-2.3506 -0.23611,-2.8063 0.27764,-0.4557 2.160091,-0.1009 2.347657,0.2969 z"
         id="path4169-1-6-5-0"
         inkscape:connector-curvature="0"
         sodipodi:nodetypes="czzzzc" />
      <path
         style="opacity:1;fill:#2ecc71;fill-opacity:1;stroke:none;stroke-width:0.5;stroke-linecap:butt;stroke-linejoin:round;stroke-miterlimit:4;stroke-dasharray:none;stroke-opacity:1"
         d="m 44.148874,1048.6275 c 0.15458,0.4113 -0.845317,2.5538 -1.13311,2.9853 -0.287809,0.4316 -1.240565,-0.1015 -1.524588,-0.5307 -0.284046,-0.429 0.02817,-2.51 0.342009,-2.9416 0.313837,-0.4315 2.161131,0.075 2.315672,0.4872 z"
         id="path4169-1-6-5-1-1"
         inkscape:connector-curvature="0"
         sodipodi:nodetypes="czzzzc" />
      <path
         style="opacity:1;fill:#2ecc71;fill-opacity:1;stroke:none;stroke-width:0.5;stroke-linecap:butt;stroke-linejoin:round;stroke-miterlimit:4;stroke-dasharray:none;stroke-opacity:1"
         d="m 41.428542,1048.1547 c -0.03287,0.3528 -1.030131,1.4035 -1.405996,1.5914 -0.37581,0.1877 -1.321929,0.4948 -1.381026,0.078 -0.05885,-0.4177 0.812418,-2.7734 1.208003,-2.9507 0.39557,-0.1773 1.611774,0.9289 1.578741,1.282 z"
         id="path4169-1-6-9-3"
         inkscape:connector-curvature="0"
         sodipodi:nodetypes="czzzzc" />
      <path
         style="opacity:1;fill:#2ecc71;fill-opacity:1;stroke:none;stroke-width:0.5;stroke-linecap:butt;stroke-linejoin:round;stroke-miterlimit:4;stroke-dasharray:none;stroke-opacity:1"
         d="m 39.128972,1046.4669 c 0.05989,0.3492 -0.660918,1.3162 -0.975096,1.5952 -0.314148,0.2789 -0.873271,0.6022 -1.038645,0.2147 -0.165335,-0.3882 0.400309,-2.158 0.73626,-2.432 0.335961,-0.2739 1.217533,0.2729 1.277331,0.6224 z"
         id="path4169-1-6-9-2-9"
         inkscape:connector-curvature="0"
         sodipodi:nodetypes="czzzzc" />
      <path
         style="opacity:1;fill:#2ecc71;fill-opacity:1;stroke:none;stroke-width:0.5;stroke-linecap:butt;stroke-linejoin:round;stroke-miterlimit:4;stroke-dasharray:none;stroke-opacity:1"
         d="m 37.748098,1045.9635 c -0.179045,0.3057 -1.496572,1.1731 -1.91663,1.1843 -0.419939,0.011 -0.544502,-0.7241 -0.421587,-1.127 0.123461,-0.4034 1.327874,-1.3625 1.761332,-1.3557 0.4334,0.01 0.755785,0.9927 0.576439,1.2987 z"
         id="path4169-1-6-9-2-1-6"
         inkscape:connector-curvature="0"
         sodipodi:nodetypes="czzzzc" />
    </g>
  </g>
</svg>
