<?xml version="1.0" encoding="UTF-8" standalone="no"?>
<!-- Created with Inkscape (http://www.inkscape.org/) -->

<svg
   xmlns:dc="http://purl.org/dc/elements/1.1/"
   xmlns:cc="http://creativecommons.org/ns#"
   xmlns:rdf="http://www.w3.org/1999/02/22-rdf-syntax-ns#"
   xmlns:svg="http://www.w3.org/2000/svg"
   xmlns="http://www.w3.org/2000/svg"
   xmlns:xlink="http://www.w3.org/1999/xlink"
   xmlns:sodipodi="http://sodipodi.sourceforge.net/DTD/sodipodi-0.dtd"
   xmlns:inkscape="http://www.inkscape.org/namespaces/inkscape"
   inkscape:version="0.91 r13725"
   version="1.1"
   id="svg2"
   viewBox="0 0 99.999997 99.999997"
   height="100"
   width="100"
   sodipodi:docname="generic.svg">
  <sodipodi:namedview
     inkscape:window-maximized="0"
     inkscape:window-y="386"
     inkscape:window-x="403"
     inkscape:window-height="796"
     inkscape:window-width="1381"
     inkscape:bbox-nodes="true"
     inkscape:snap-bbox="true"
     units="px"
     showgrid="false"
     inkscape:current-layer="layer1"
     inkscape:document-units="px"
     inkscape:cy="23.726813"
     inkscape:cx="50.710506"
     inkscape:zoom="1"
     inkscape:pageshadow="2"
     inkscape:pageopacity="0.0"
     borderopacity="1.0"
     bordercolor="#666666"
     pagecolor="#ffffff"
     id="base">
    <inkscape:grid
       id="grid4147"
       type="xygrid" />
  </sodipodi:namedview>
  <defs
     id="defs4">
    <linearGradient
       inkscape:collect="always"
       id="linearGradient4459">
      <stop
         style="stop-color:#000000;stop-opacity:1;"
         offset="0"
         id="stop4461" />
      <stop
         style="stop-color:#000000;stop-opacity:0;"
         offset="1"
         id="stop4463" />
    </linearGradient>
    <linearGradient
       inkscape:collect="always"
       xlink:href="#linearGradient4459"
       id="linearGradient4465"
       x1="46"
       y1="63"
       x2="60.125"
       y2="77.125"
       gradientUnits="userSpaceOnUse"
       gradientTransform="translate(0,947.36223)" />
    <linearGradient
       inkscape:collect="always"
       xlink:href="#linearGradient4459"
       id="linearGradient4475"
       x1="60.000046"
       y1="982.36224"
       x2="115"
       y2="1037.3622"
       gradientUnits="userSpaceOnUse" />
  </defs>
  <metadata
     id="metadata7">
    <rdf:RDF>
      <cc:Work
         rdf:about="">
        <dc:format>image/svg+xml</dc:format>
        <dc:type
           rdf:resource="http://purl.org/dc/dcmitype/StillImage" />
        <dc:title />
      </cc:Work>
    </rdf:RDF>
  </metadata>
  <g
     transform="translate(0,-952.36223)"
     id="layer1"
     inkscape:groupmode="layer"
     inkscape:label="Layer 1">
    <rect
       y="952.36224"
       x="0"
       height="100"
       width="100"
       id="rect4151"
       style="opacity:1;fill:#1d99f3;fill-opacity:1;stroke:none;stroke-width:0.5;stroke-linecap:butt;stroke-linejoin:round;stroke-miterlimit:4;stroke-dasharray:none;stroke-opacity:1" />
    <path
       style="opacity:0.2;fill:url(#linearGradient4475);fill-opacity:1;fill-rule:evenodd;stroke:none;stroke-width:1px;stroke-linecap:butt;stroke-linejoin:miter;stroke-opacity:1"
       d="m 70,969.86225 30,29.99996 0,52.49999 -40,0 z"
       id="path4467"
       inkscape:connector-curvature="0"
       sodipodi:nodetypes="ccccc" />
    <path
       sodipodi:nodetypes="scscsss"
       inkscape:connector-curvature="0"
       id="path4245"
       d="m 79.691366,988.36311 c -0.527773,-0.008 -1.096537,0.0405 -1.691366,0.12465 0.835425,3.16322 1.398726,6.64344 1.624179,10.49444 0.154052,2.6313 0.145048,5.0821 0.0029,7.38 2.17596,-0.5526 3.141312,-2.247 2.804335,-3.9017 -0.373911,-1.8361 2.991293,-3.0392 2.523904,-8.80074 -0.292118,-3.60101 -2.192166,-5.24781 -5.263973,-5.29665 z"
       style="fill:#eff0f1;fill-opacity:1;fill-rule:evenodd;stroke:none;stroke-width:1px;stroke-linecap:butt;stroke-linejoin:miter;stroke-opacity:1" />
    <path
       sodipodi:nodetypes="scscsss"
       inkscape:connector-curvature="0"
       id="path4245-7"
       d="m 20.308634,988.36314 c 0.527773,-0.008 1.096537,0.0405 1.691366,0.12465 -0.835425,3.16322 -1.398726,6.64341 -1.624179,10.49441 -0.154052,2.6313 -0.145048,5.0821 -0.0029,7.38 -2.17596,-0.5526 -3.141312,-2.247 -2.804335,-3.9017 0.373911,-1.8361 -2.991293,-3.0392 -2.523904,-8.80071 0.292118,-3.60101 2.192166,-5.24781 5.263973,-5.29665 z"
       style="fill:#eff0f1;fill-opacity:1;fill-rule:evenodd;stroke:none;stroke-width:1px;stroke-linecap:butt;stroke-linejoin:miter;stroke-opacity:1" />
    <path
       sodipodi:nodetypes="ssccss"
       inkscape:connector-curvature="0"
       id="path4164"
       transform="translate(0,952.36223)"
       d="M 50,10 C 38,10 21.262948,15.33759 20,47.1875 18.93934,73.936 34.358757,86.1654 37,100 l 26,0 C 65.641243,86.1654 81.06066,73.936 80,47.1875 78.737052,15.33759 62,10 50,10 Z"
       style="fill:#eff0f1;fill-rule:evenodd;stroke:none;stroke-width:1px;stroke-linecap:butt;stroke-linejoin:miter;stroke-opacity:1" />
    <path
       sodipodi:nodetypes="sssss"
       inkscape:connector-curvature="0"
       id="path4169"
       d="m 35.952387,996.15913 c 1.692675,0.40483 2.484478,-0.51358 2.892795,-2.19202 0.408253,-1.67844 0.278412,-4.11409 -1.414231,-4.51894 -1.692713,-0.40486 -2.917694,0.66157 -3.325991,2.34002 -0.408291,1.67845 0.154715,3.96608 1.847427,4.37094 z"
       style="opacity:1;fill:#1d99f3;fill-opacity:1;stroke:none;stroke-width:0.5;stroke-linecap:butt;stroke-linejoin:round;stroke-miterlimit:4;stroke-dasharray:none;stroke-opacity:1" />
    <path
       sodipodi:nodetypes="zsz"
       inkscape:connector-curvature="0"
       id="path4188"
       d="m 50,994.3622 c -3,0 -9,18 0,18 9,0 3,-18 0,-18 z"
       style="fill:#2ecc71;fill-rule:evenodd;stroke:none;stroke-width:1px;stroke-linecap:butt;stroke-linejoin:miter;stroke-opacity:1" />
    <path
       sodipodi:nodetypes="sssss"
       inkscape:connector-curvature="0"
       id="path4169-0"
       d="m 64.047613,996.15913 c -1.692675,0.40483 -2.484478,-0.51358 -2.892795,-2.19202 -0.408253,-1.67844 -0.278412,-4.11409 1.414231,-4.51894 1.692713,-0.40486 2.917694,0.66157 3.325991,2.34002 0.408291,1.67845 -0.154715,3.96608 -1.847427,4.37094 z"
       style="opacity:1;fill:#1d99f3;fill-opacity:1;stroke:none;stroke-width:0.5;stroke-linecap:butt;stroke-linejoin:round;stroke-miterlimit:4;stroke-dasharray:none;stroke-opacity:1" />
    <path
       style="opacity:0.1;fill:url(#linearGradient4465);fill-opacity:1;fill-rule:evenodd;stroke:none;stroke-width:1px;stroke-linecap:butt;stroke-linejoin:miter;stroke-opacity:1"
       d="m 51.042969,994.9345 c 3.068502,3.0685 6.995379,17.4277 -1.042969,17.4277 -1.407324,0 -2.448801,-0.441 -3.191406,-1.1836 l 18.1875,18.1875 10.238281,-10.2382 z"
       id="path4407"
       inkscape:connector-curvature="0"
       sodipodi:nodetypes="cscccc" />
    <path
       id="path4192"
       d="m 39.9375,1019.0829 c -0.429749,0.01 -0.75,0.092 -0.9375,0.2793 -1,1 4,7 11,7 7,0 12,-6 11,-7 -1,-1 -5.75,1 -11,1 -4.265625,0 -8.200256,-1.3205 -10.0625,-1.2793 z"
       style="fill:#1d99f3;fill-opacity:1;fill-rule:evenodd;stroke:none;stroke-width:1px;stroke-linecap:butt;stroke-linejoin:miter;stroke-opacity:1"
       inkscape:connector-curvature="0" />
    <path
       inkscape:connector-curvature="0"
       id="path4280"
       d="m 50,1021.3622 c 2,0 7,-1 7,-1 0,0 -2,3 -7,3 -5,0 -7,-3 -7,-3 0,0 4,1 7,1"
       style="fill:#eff0f1;fill-opacity:1;fill-rule:evenodd;stroke:none;stroke-width:1px;stroke-linecap:butt;stroke-linejoin:miter;stroke-opacity:1" />
  </g>
</svg>
