<?xml version="1.0" encoding="UTF-8"?>
<!-- Created with Inkscape (http://www.inkscape.org/) -->
<svg width="32.006" height="300" version="1.1" viewBox="0 0 32.006 300" xmlns="http://www.w3.org/2000/svg">
 <g fill="none" stroke="#000" stroke-width="2">
  <path id="base" d="m15.938 299.77c-9.2112-0.315-10.544-2.052-11.134-5.418-4.5935-26.212-4.5966-254.2-4.5966-254.2l9.5589-27.513s1.0844-1.8566 6.1713-1.84c0.0244 1e-4 0.0407 0.0142 0.0651 0.0149 0.0245-1e-4 0.0408-0.0142 0.0652-0.0149 5.0869-0.0164 6.1713 1.84 6.1713 1.84l9.5589 27.513s-0.0033 227.98-4.5967 254.2c-0.5896 3.366-1.9224 5.103-11.134 5.418-0.0244 0-0.0407-1e-3 -0.0651 0-0.0245-1e-3 -0.0408 0-0.0652 0z"/>
  <path id="nib" d="m13.169 10.8 0.7313-10.032 2.1791-0.5257 2.1632 0.5257 0.7313 10.032h-2.8948z"/>
 </g>
</svg>
