<?xml version="1.0" encoding="UTF-8"?>
<!-- Created with Inkscape (http://www.inkscape.org/) -->
<svg width="32.006" height="300" version="1.1" viewBox="0 0 32.006 300" xmlns="http://www.w3.org/2000/svg">
 <g fill="none" stroke="#000" stroke-width="2">
  <path id="base" d="m15.938 0.21032c-9.2112 0.31493-10.544 2.0519-11.134 5.4178-4.5935 26.212-4.5966 254.2-4.5966 254.2l9.5589 27.513s1.0844 1.8566 6.1713 1.84c0.02443-7e-5 0.04072-0.0142 0.06515-0.0149 0.02443 9e-5 0.04072 0.0142 0.06515 0.0149 5.0869 0.0164 6.1713-1.84 6.1713-1.84l9.5589-27.513s-0.0033-227.98-4.5967-254.2c-0.5896-3.3659-1.9224-5.1029-11.134-5.4178-0.02443-7.2526e-4 -0.04072 6.9535e-4 -0.06515 0-0.02443 6.9535e-4 -0.04072-7.2526e-4 -0.06515 0z"/>
  <path id="nib" d="m13.169 289.18 0.7313 10.032 2.1791 0.5257 2.1632-0.5257 0.7313-10.032h-2.8948z"/>
 </g>
</svg>
