<?xml version="1.0" encoding="UTF-8" standalone="no"?>
<!-- Created with Inkscape (http://www.inkscape.org/) -->

<svg
   width="168.42075"
   height="116.79247"
   viewBox="0 0 169.04161 117.77387"
   version="1.1"
   id="svg5"
   xml:space="preserve"
   sodipodi:docname="ps5.svg"
   inkscape:version="1.3.2 (091e20ef0f, 2023-11-25, custom)"
   xmlns:inkscape="http://www.inkscape.org/namespaces/inkscape"
   xmlns:sodipodi="http://sodipodi.sourceforge.net/DTD/sodipodi-0.dtd"
   xmlns="http://www.w3.org/2000/svg"
   xmlns:svg="http://www.w3.org/2000/svg"><sodipodi:namedview
     id="namedview7"
     pagecolor="#ffffff"
     bordercolor="#000000"
     borderopacity="0.25"
     inkscape:showpageshadow="2"
     inkscape:pageopacity="0.0"
     inkscape:pagecheckerboard="0"
     inkscape:deskcolor="#d1d1d1"
     inkscape:document-units="mm"
     showgrid="false"
     inkscape:zoom="5.114372"
     inkscape:cx="67.359199"
     inkscape:cy="75.082532"
     inkscape:window-width="1850"
     inkscape:window-height="1052"
     inkscape:window-x="0"
     inkscape:window-y="0"
     inkscape:window-maximized="1"
     inkscape:current-layer="g1778" /><defs
     id="defs2"><inkscape:path-effect
       effect="mirror_symmetry"
       start_point="48.197728,68.763977"
       end_point="48.197728,200.15605"
       center_point="48.197728,134.46001"
       id="path-effect1895"
       is_visible="true"
       lpeversion="1.2"
       lpesatellites=""
       mode="vertical"
       discard_orig_path="false"
       fuse_paths="false"
       oposite_fuse="false"
       split_items="false"
       split_open="false"
       link_styles="false" /><inkscape:path-effect
       effect="mirror_symmetry"
       start_point="43.976555,10.730238"
       end_point="43.976555,287.70114"
       center_point="43.976555,149.21569"
       id="path-effect1794"
       is_visible="true"
       lpeversion="1.2"
       lpesatellites=""
       mode="vertical"
       discard_orig_path="false"
       fuse_paths="false"
       oposite_fuse="false"
       split_items="false"
       split_open="false"
       link_styles="false" /><inkscape:path-effect
       effect="fill_between_many"
       method="originald"
       linkedpaths="#path3,0,1"
       id="path-effect10468"
       is_visible="true"
       lpeversion="0"
       join="true"
       close="true"
       autoreverse="true" /><inkscape:path-effect
       effect="fill_between_many"
       method="originald"
       linkedpaths="#path3,0,1"
       id="path-effect10473"
       is_visible="true"
       lpeversion="0"
       join="true"
       close="true"
       autoreverse="true" /></defs><g
     id="g1778"
     inkscape:groupmode="layer"
     inkscape:label="Controller"
     style="display:inline"
     transform="translate(-16.590953,-9.2326635)"><path
       style="display:inline;fill:none;fill-opacity:1;stroke:#aaaaaa;stroke-width:1.08622;stroke-dasharray:none;stroke-opacity:1"
       d="m 33.577777,22.588286 c 4.068939,-1.033544 27.460477,-5.079188 27.460477,-5.079188 0,0 34.752516,-6.589297 80.462016,-0.380293 l 26.42369,5.020886 c 0,0 10.56102,10.366722 13.48377,28.575914 0,0 3.84305,16.73565 4.0775,42.4108 0,0 -0.25306,16.288405 -4.32771,25.027245 0,0 -2.58305,4.66198 -8.79457,6.47842 l -11.29248,1.08543 c -6.0215,-7.52104 -13.25646,-30.750955 -13.25646,-30.750955 0,0 -2.52368,-8.77402 -9.75583,-9.22089 l -74.047772,0.61372 c -6.980332,-0.225006 -8.883369,1.88039 -11.510877,8.83471 0,0 -4.091749,17.406025 -12.53961,31.193135 L 27.100727,123.7314 c 0,0 -4.536061,-2.04541 -8.968333,-9.43142 -3.469628,-14.336635 0.633611,-43.246475 0.633611,-43.246475 0,0 3.380735,-30.036176 14.811772,-48.465219 z"
       id="base"
       sodipodi:nodetypes="cccccccccccccccccc" /><path
       id="path1823"
       style="display:inline;fill:none;fill-opacity:1;stroke:#888888;stroke-width:0.600001;stroke-dasharray:none;stroke-opacity:1"
       d="m 140.08323,22.295672 h 2.70806 m -2.7104,-0.91975 h 2.69151 m -2.7397,-1.018252 c 1.6604,0 2.00931,0 2.77937,0"
       sodipodi:nodetypes="cccccc" /><path
       id="l-pad-outline"
       style="display:inline;fill:none;stroke:#000000;paint-order:stroke markers fill"
       transform="translate(24.4566,-35.917799)"
       d="m 62.562734,105.23932 a 12.7385,12.7385 0 0 1 -12.7385,12.7385 12.7385,12.7385 0 0 1 -12.7385,-12.7385 12.7385,12.7385 0 0 1 12.7385,-12.738501 12.7385,12.7385 0 0 1 12.7385,12.738501 z" /><path
       id="r-pad-outline"
       style="display:inline;fill:none;stroke:#000000;paint-order:stroke markers fill"
       transform="translate(4.9572,-65.605001)"
       d="m 136.18213,134.45383 a 12.7385,12.7385 0 0 1 -12.7385,12.7385 12.7385,12.7385 0 0 1 -12.7385,-12.7385 12.7385,12.7385 0 0 1 12.7385,-12.7385 12.7385,12.7385 0 0 1 12.7385,12.7385 z" /><path
       style="fill:#888888;stroke:#888888;stroke-width:0.499999;stroke-dasharray:none;stroke-opacity:1"
       d="m 61.084449,22.170007 0.09354,-1.947408 -0.03307,0.28112"
       id="path2720"
       sodipodi:nodetypes="ccc" /><path
       style="fill:#888888;stroke:#888888;stroke-width:0.499999;stroke-dasharray:none;stroke-opacity:1"
       d="m 61.821454,22.411891 1.216564,-1.644563"
       id="path2722"
       sodipodi:nodetypes="cc" /><path
       style="fill:#888888;stroke:#888888;stroke-width:0.499999;stroke-dasharray:none;stroke-opacity:1"
       d="m 60.35879,22.478038 -1.040822,-1.82079"
       id="path2724"
       sodipodi:nodetypes="cc" /></g><g
     inkscape:groupmode="layer"
     id="left-shoulder"
     inkscape:label="Left Shoulder Button"
     style="display:inline;stroke-width:1.65851"
     transform="matrix(0.611902,0,0,0.594131,-1.8507527,-0.34480362)"><path
       style="display:inline;fill:#888888;fill-opacity:1;stroke-width:2.48776;stroke-dasharray:none"
       d="M 75.662531,14.510669 73.61693,7.6463487 c 0,0 -24.950869,-0.2790425 -35.980099,7.1290643 -11.02924,7.408107 -1.52753,1.053577 -1.52753,1.053577 l 1.046194,5.966808 z"
       id="path1067"
       sodipodi:nodetypes="ccsccc" /></g><g
     inkscape:groupmode="layer"
     id="left-trigger"
     inkscape:label="Left Trigger Button"
     transform="translate(-16.590953,-9.2326635)"><path
       style="display:inline;fill:#888888;fill-opacity:1;stroke-width:1.5;stroke-dasharray:none"
       d="M 57.979479,13.532871 57.01023,9.454566 c 0,0 -11.822256,-0.1657878 -17.048142,4.235598 -5.22589,4.401386 -0.723776,0.625963 -0.723776,0.625963 l 0.495709,3.545065 z"
       id="path1067-3"
       sodipodi:nodetypes="ccsccc" /></g><g
     inkscape:groupmode="layer"
     id="right-shoulder"
     inkscape:label="Right Shoulder Button"
     style="display:inline;stroke-width:1.383"
     transform="matrix(0.761078,0,0,0.68696,33.982447,-3.5528036)"><path
       style="display:inline;fill:#888888;fill-opacity:1;stroke-width:2.07449;stroke-dasharray:none"
       d="m 120.00252,17.610876 0.74649,-6.39574 c 0,0 19.33429,-1.106135 28.68645,5.651492 0.82972,0.599534 1.23842,1.053576 1.23842,1.053576 l 0.51777,5.020567 z"
       id="path1062"
       sodipodi:nodetypes="ccsccc" /></g><g
     inkscape:groupmode="layer"
     id="right-trigger"
     inkscape:label="Right Trigger Button"
     transform="translate(-16.590953,-9.2326635)"><path
       style="display:inline;fill:#888888;fill-opacity:1;stroke-width:1.5;stroke-dasharray:none"
       d="m 144.91162,13.672502 0.43828,-4.3936173 c 0,0 11.35156,-0.7598706 16.84241,3.8823493 0.48715,0.411856 0.7271,0.723764 0.7271,0.723764 l 0.304,3.448929 z"
       id="path1062-6"
       sodipodi:nodetypes="ccsccc" /></g><g
     id="center"
     inkscape:groupmode="layer"
     inkscape:label="Guide Button"
     style="display:inline;stroke-width:1.70519"
     transform="matrix(0.586444,0,0,0.586444,27.457547,44.918436)"><path
       style="fill:#888888;fill-opacity:1;stroke:none;stroke-width:1.85184;stroke-opacity:1"
       d="m 94.511318,15.346042 5.326726,1.257612 2.979636,2.303377 -0.16918,4.706851 -2.656352,0.504859 -1.539621,-0.309987 0.132647,-4.323793 -0.629516,10.950088 -3.20422,-1.358447 z"
       id="path15916" /><path
       style="fill:#888888;fill-opacity:1;stroke:none;stroke-width:1.85184;stroke-opacity:1"
       d="m 94.222829,22.925863 -6.801167,2.718698 -0.0434,1.433146 2.871165,1.440293 4.268209,-0.240606 -0.01633,-2.571077 -1.779402,0.947574 -1.313105,-0.114226 3.118314,-1.024692 z"
       id="path15918" /><path
       style="fill:#888888;fill-opacity:1;stroke:none;stroke-width:1.85184;stroke-opacity:1"
       d="m 98.398098,24.854628 0.531979,-0.638232 2.005663,0.167409 3.18787,-0.391386 2.34369,1.050251 0.15152,1.994609 -8.428795,2.978899 0.307614,-2.563281 4.944841,-2.081048 -3.999586,0.319232 -0.254913,0.950223 -0.701229,0.0564 z"
       id="path15920" /></g><g
     id="x-button"
     inkscape:label="X Button"
     transform="translate(-1.3145526,-65.715464)"
     style="display:inline;stroke-width:1.5;stroke-dasharray:none"
     inkscape:groupmode="layer"><path
       id="path6592"
       style="display:inline;fill:#888888;stroke:#888888;stroke-width:0.396875;stroke-miterlimit:1"
       d="m 125.94495,96.765613 a 5.4901042,5.4901042 0 0 0 -5.4901,5.490107 5.4901042,5.4901042 0 0 0 5.4901,5.4901 5.4901042,5.4901042 0 0 0 5.49011,-5.4901 5.4901042,5.4901042 0 0 0 -5.49011,-5.490107 z m -2.71198,2.976562 h 5.15938 v 5.159375 h -5.15938 z" /><path
       id="rect6707"
       style="fill:#888888;stroke:#888888;stroke-width:0.396875;stroke-miterlimit:1"
       d="m 124.42361,100.9328 h 2.84427 v 2.84427 h -2.84427 z" /></g><g
     id="y-button"
     inkscape:label="Y Button"
     transform="translate(14.231947,-83.360664)"
     inkscape:groupmode="layer"
     style="display:inline"><path
       id="path5683"
       style="display:inline;fill:#888888;fill-opacity:1;stroke:#888888;stroke-width:0.264583;stroke-miterlimit:1;stroke-opacity:1"
       d="m 122.85868,101.79349 a 5.6477389,5.6477389 0 0 0 -5.64772,5.64772 5.6477389,5.6477389 0 0 0 5.64772,5.64824 5.6477389,5.6477389 0 0 0 5.64771,-5.64824 5.6477389,5.6477389 0 0 0 -5.64771,-5.64772 z m -5.2e-4,1.80455 1.67742,2.92592 1.64434,2.86649 -3.3724,-0.0103 -3.30471,-0.009 1.69498,-2.91507 z" /><path
       id="path5690"
       style="fill:#888888;stroke:#888888;stroke-width:0.264583;stroke-miterlimit:1"
       inkscape:transform-center-x="1.9342316e-06"
       inkscape:transform-center-y="-0.48526164"
       transform="matrix(0.264583,0,0,0.264583,-30.8229,74.128)"
       d="m 580.71143,118.97072 3.17668,5.50218 3.17668,5.50217 h -6.35336 -6.35337 l 3.17668,-5.50217 z" /></g><g
     id="b-button"
     inkscape:label="B Button"
     transform="translate(29.891947,-66.422064)"
     inkscape:groupmode="layer"
     style="display:inline"><path
       id="path2616"
       style="display:inline;fill:#888888;stroke:#888888;stroke-width:0.264583;stroke-miterlimit:1"
       d="m 121.33563,103.02613 a 1.6604118,1.6604118 0 0 1 -1.66041,1.66041 1.6604118,1.6604118 0 0 1 -1.66042,-1.66041 1.6604118,1.6604118 0 0 1 1.66042,-1.66041 1.6604118,1.6604118 0 0 1 1.66041,1.66041 z" /><path
       id="path1011"
       style="display:inline;fill:#888888;stroke:#888888;stroke-width:0.499999"
       d="m 119.93227,97.273258 a 5.8465204,5.8465204 0 0 0 -5.84616,5.846152 5.8465204,5.8465204 0 0 0 5.84616,5.84667 5.8465204,5.8465204 0 0 0 5.84667,-5.84667 5.8465204,5.8465204 0 0 0 -5.84667,-5.846152 z m -0.1633,2.665987 a 3.1103489,3.1103489 0 0 1 3.10989,3.110405 3.1103489,3.1103489 0 0 1 -3.10989,3.1104 3.1103489,3.1103489 0 0 1 -3.11041,-3.1104 3.1103489,3.1103489 0 0 1 3.11041,-3.110405 z" /></g><g
     id="a-button"
     inkscape:label="A Button"
     transform="translate(14.193347,-50.481364)"
     inkscape:groupmode="layer"
     style="display:inline"><path
       id="path6766"
       style="display:inline;fill:#888888;stroke:#888888;stroke-width:0.264583;stroke-miterlimit:1"
       d="m 122.86214,93.820685 a 5.5191154,5.5191154 0 0 0 -5.51905,5.519043 5.5191154,5.5191154 0 0 0 5.51905,5.519042 5.5191154,5.5191154 0 0 0 5.51904,-5.519042 5.5191154,5.5191154 0 0 0 -5.51904,-5.519043 z m 2.38538,2.712496 0.63149,0.631486 -2.40864,2.409155 2.43189,2.431888 -0.72502,0.72503 -2.33836,-2.33888 -2.22157,2.22209 -0.65474,-0.7953 2.22157,-2.268599 -2.50217,-2.22157 c 0.26709,-0.23154 0.53059,-0.466933 0.79478,-0.701766 l 2.38539,2.29185 z" /></g><g
     id="g1636"
     inkscape:label="Right Axis"
     transform="translate(-11.633753,-74.837664)"
     inkscape:groupmode="layer"
     style="display:inline"><path
       id="r-pad"
       style="fill:#888888;fill-opacity:1;stroke:#888888;stroke-opacity:1;paint-order:stroke markers fill"
       d="m 134.11375,134.4478 a 10.670128,10.670128 0 0 1 -10.67012,10.67013 10.670128,10.670128 0 0 1 -10.67013,-10.67013 10.670128,10.670128 0 0 1 10.67013,-10.67013 10.670128,10.670128 0 0 1 10.67012,10.67013 z" /></g><g
     id="g1632"
     inkscape:label="Left Axis"
     transform="translate(7.8656473,-45.150464)"
     inkscape:groupmode="layer"
     style="display:inline"><path
       id="l-pad"
       style="fill:#888888;fill-opacity:1;stroke:#888888;stroke-opacity:1;paint-order:stroke markers fill"
       d="M 60.494362,105.23329 A 10.670128,10.670128 0 0 1 49.824234,115.90342 10.670128,10.670128 0 0 1 39.154106,105.23329 10.670128,10.670128 0 0 1 49.824234,94.563164 10.670128,10.670128 0 0 1 60.494362,105.23329 Z" /></g><g
     id="g1766"
     inkscape:groupmode="layer"
     inkscape:label="Start Button"
     style="display:inline"
     transform="translate(19.751447,-26.010064)"><path
       id="mid-right"
       style="fill:#888888;stroke:#888888;stroke-width:0.499999"
       transform="rotate(10)"
       d="m 110.27323,21.352037 c 1.0883,0 1.96443,0.892 1.96443,2 v 3.857724 c 0,1.108 -0.87613,2 -1.96443,2 -1.08829,0 -1.96443,-0.892 -1.96443,-2 v -3.857724 c 0,-1.108 0.87614,-2 1.96443,-2 z" /></g><g
     id="mid-left"
     inkscape:groupmode="layer"
     inkscape:label="Back Button"
     style="display:inline"
     transform="translate(-58.175253,-22.464364)"><path
       id="rect1278-3"
       style="display:inline;fill:#888888;stroke:#888888;stroke-width:0.499999"
       d="m 102.45423,36.677471 c -1.07177,0.188981 -1.77969,1.219568 -1.58729,2.310735 l 0.66989,3.799117 c 0.1924,1.091167 1.21011,1.817477 2.28188,1.628496 1.07176,-0.18898 1.77969,-1.219569 1.58729,-2.310736 l -0.66989,-3.799116 c -0.1924,-1.091167 -1.21012,-1.817476 -2.28188,-1.628496 z" /></g><g
     inkscape:groupmode="layer"
     id="layer2"
     inkscape:label="Misc Button"
     transform="matrix(1.0444,0,0,0.393093,-17.293718,47.941036)"
     style="stroke-width:1.5607"><path
       id="misc"
       style="fill:#888888;stroke-width:1.69492"
       d="m 94.422701,49.653942 h 6.356789 c 0.5438,0 0.98159,1.320816 0.98159,2.96147 0,1.640654 -0.43779,2.96147 -0.98159,2.96147 h -6.356789 c -0.543798,0 -0.981585,-1.320816 -0.981585,-2.96147 0,-1.640654 0.437787,-2.96147 0.981585,-2.96147 z" /></g><g
     id="up"
     inkscape:groupmode="layer"
     inkscape:label="D-pad Up"
     style="display:inline"
     transform="translate(-62.427753,-32.165564)"><path
       id="path16291"
       style="fill:none;stroke:#888888;stroke-width:1;stroke-miterlimit:1;stroke-opacity:1;paint-order:stroke markers fill"
       inkscape:label="D-pad Up"
       d="m 94.276164,54.860051 c 2.659553,0 4.800768,0.956209 4.800638,0.95917 l -0.307747,7.013208 c -0.01165,0.26543 -4.326582,4.000755 -4.326582,4.000755 0,0 -0.142999,-0.03785 -0.412868,-0.05269 0,0 -4.238263,-3.680934 -4.261291,-4.211804 l -0.292789,-6.749464 c 0,0 2.141084,-0.95917 4.800639,-0.95917 z"
       sodipodi:nodetypes="scscsscs" /><path
       style="fill:#888888;fill-opacity:1;stroke:#888888;stroke-width:0.5;stroke-dasharray:none;stroke-opacity:1"
       d="m 94.318211,57.864506 1.062217,1.021572 -2.091306,0.01859 z"
       id="path16293"
       sodipodi:nodetypes="cccc" /></g><g
     id="down"
     inkscape:groupmode="layer"
     inkscape:label="D-pad Down"
     style="display:inline"
     transform="translate(-62.522153,-26.358164)"><path
       id="path16299"
       style="display:inline;fill:none;stroke:#888888;stroke-width:1;stroke-miterlimit:1;stroke-opacity:1;paint-order:stroke markers fill"
       inkscape:label="D-pad Down"
       d="m 94.493073,76.767698 c 2.659553,0 4.800768,-0.956209 4.800638,-0.95917 L 98.985964,68.79532 c -0.01165,-0.26543 -4.326582,-4.000755 -4.326582,-4.000755 0,0 -0.142999,0.03785 -0.412868,0.05269 0,0 -4.238263,3.680934 -4.261291,4.211804 l -0.292789,6.749464 c 0,0 2.141084,0.95917 4.800639,0.95917 z"
       sodipodi:nodetypes="scscsscs" /><path
       style="display:inline;fill:#888888;fill-opacity:1;stroke:#888888;stroke-width:0.5;stroke-dasharray:none;stroke-opacity:1"
       d="m 94.53512,73.763243 1.062217,-1.021572 -2.091306,-0.01859 z"
       id="path16301"
       sodipodi:nodetypes="cccc" /></g><g
     id="right"
     inkscape:groupmode="layer"
     inkscape:label="D-pad Right"
     style="display:inline"
     transform="translate(-58.080553,-29.655464)"><path
       id="rect1842"
       style="display:inline;fill:none;stroke:#888888;stroke-width:1;stroke-miterlimit:1;stroke-opacity:1;paint-order:stroke markers fill"
       inkscape:label="D-pad Right"
       d="m 104.27168,66.199305 c 0,2.659553 -0.9562,4.800768 -0.95917,4.800638 l -7.013203,-0.307747 c -0.26543,-0.01165 -4.000755,-4.326582 -4.000755,-4.326582 0,0 0.03785,-0.142999 0.05269,-0.412868 0,0 3.680934,-4.238263 4.211804,-4.261291 l 6.749464,-0.292789 c 0,0 0.95917,2.141084 0.95917,4.800639 z"
       sodipodi:nodetypes="scscsscs" /><path
       style="display:inline;fill:#888888;fill-opacity:1;stroke:#888888;stroke-width:0.5;stroke-dasharray:none;stroke-opacity:1"
       d="m 100.83745,66.147367 -1.021571,1.062217 -0.01859,-2.091306 z"
       id="path16282"
       sodipodi:nodetypes="cccc" /></g><g
     id="left"
     inkscape:groupmode="layer"
     inkscape:label="D-pad Left"
     style="display:inline"
     transform="translate(-64.018153,-28.513164)"><path
       id="path16305"
       style="display:inline;fill:none;stroke:#888888;stroke-width:1;stroke-miterlimit:1;stroke-opacity:1;paint-order:stroke markers fill"
       inkscape:label="D-pad Right"
       d="m 81.962977,64.969451 c 0,2.659553 0.9562,4.800768 0.95917,4.800638 l 7.013204,-0.307747 c 0.26543,-0.01165 4.00075,-4.326582 4.00075,-4.326582 0,0 -0.0379,-0.142999 -0.0527,-0.412868 0,0 -3.68093,-4.238263 -4.2118,-4.261291 l -6.749464,-0.292789 c 0,0 -0.95917,2.141084 -0.95917,4.800639 z"
       sodipodi:nodetypes="scscsscs" /><path
       style="display:inline;fill:#888888;fill-opacity:1;stroke:#888888;stroke-width:0.5;stroke-dasharray:none;stroke-opacity:1"
       d="m 85.397211,64.917513 1.02157,1.062217 0.0186,-2.091306 z"
       id="path16307"
       sodipodi:nodetypes="cccc" /></g></svg>
